<svg width="20" height="19" viewBox="0 0 20 19" fill="none" xmlns="http://www.w3.org/2000/svg">
<path d="M4.25781 14.4829C3.53906 13.8217 4.01563 12.4345 3.64844 11.6223C3.28125 10.8101 1.875 10.0985 1.875 9.2001C1.875 8.30166 3.26563 7.61885 3.64844 6.77791C4.03125 5.93697 3.53906 4.57854 4.25781 3.91729C4.97656 3.25604 6.48438 3.69447 7.36719 3.35666C8.25 3.01885 9.02344 1.7251 10 1.7251C10.9766 1.7251 11.7187 3.00447 12.6328 3.35666C13.5469 3.70885 15.0234 3.25604 15.7422 3.91729C16.4609 4.57854 15.9844 5.96572 16.3516 6.77791C16.7188 7.5901 18.125 8.30166 18.125 9.2001C18.125 10.0985 16.7344 10.7813 16.3516 11.6223C15.9688 12.4632 16.4609 13.8217 15.7422 14.4829C15.0234 15.1442 13.5156 14.7057 12.6328 15.0435C11.75 15.3813 10.9766 16.6751 10 16.6751C9.02344 16.6751 8.28125 15.3957 7.36719 15.0435C6.45313 14.6913 4.97656 15.1442 4.25781 14.4829Z" stroke="#8B8B8B" stroke-linecap="round" stroke-linejoin="round"/>
</svg>
