<svg width="20" height="19" viewBox="0 0 20 19" fill="none" xmlns="http://www.w3.org/2000/svg">
<path d="M17.6484 7.38865C17.3516 7.10834 17.0469 6.81365 16.9297 6.56209C16.8125 6.31053 16.8203 5.93678 16.8125 5.55584C16.8047 4.85865 16.7891 4.06084 16.1875 3.5074C15.5859 2.95396 14.7188 2.93959 13.9609 2.9324C13.5469 2.92521 13.125 2.91803 12.8672 2.82459C12.6094 2.73115 12.2734 2.43646 11.9688 2.16334C11.4297 1.68896 10.8125 1.1499 10 1.1499C9.1875 1.1499 8.57031 1.68896 8.03125 2.16334C7.72656 2.43646 7.40625 2.71678 7.13281 2.82459C6.85938 2.9324 6.45313 2.92521 6.03906 2.9324C5.28125 2.93959 4.41406 2.95396 3.8125 3.5074C3.21094 4.06084 3.19531 4.85865 3.1875 5.55584C3.17969 5.93678 3.17187 6.3249 3.07031 6.56209C2.96875 6.79928 2.64844 7.10834 2.35156 7.38865C1.83594 7.88459 1.25 8.4524 1.25 9.1999C1.25 9.9474 1.83594 10.5152 2.35156 11.0112C2.64844 11.2915 2.95312 11.5862 3.07031 11.8377C3.1875 12.0893 3.17969 12.463 3.1875 12.844C3.19531 13.5412 3.21094 14.339 3.8125 14.8924C4.41406 15.4458 5.28125 15.4602 6.03906 15.4674C6.45313 15.4746 6.875 15.4818 7.13281 15.5752C7.39062 15.6687 7.72656 15.9633 8.03125 16.2365C8.57031 16.7108 9.1875 17.2499 10 17.2499C10.8125 17.2499 11.4297 16.7108 11.9688 16.2365C12.2734 15.9633 12.5938 15.683 12.8672 15.5752C13.1406 15.4674 13.5469 15.4746 13.9609 15.4674C14.7188 15.4602 15.5859 15.4458 16.1875 14.8924C16.7891 14.339 16.8047 13.5412 16.8125 12.844C16.8203 12.463 16.8281 12.0749 16.9297 11.8377C17.0312 11.6005 17.3516 11.2915 17.6484 11.0112C18.1641 10.5152 18.75 9.9474 18.75 9.1999C18.75 8.4524 18.1641 7.88459 17.6484 7.38865ZM13.8672 7.89178L9.28906 11.9168C9.17071 12.0192 9.01405 12.0758 8.85156 12.0749C8.69146 12.0755 8.53739 12.0188 8.42188 11.9168L6.13281 9.90428C6.06932 9.85332 6.01769 9.79107 5.98101 9.72128C5.94434 9.65149 5.92338 9.5756 5.9194 9.49817C5.91541 9.42074 5.92849 9.34337 5.95784 9.27071C5.98719 9.19805 6.03221 9.13159 6.09018 9.07535C6.14816 9.0191 6.2179 8.97422 6.29521 8.9434C6.37253 8.91258 6.45581 8.89646 6.54007 8.89601C6.62432 8.89556 6.70781 8.91079 6.78551 8.94078C6.8632 8.97077 6.9335 9.0149 6.99219 9.07053L8.85156 10.7021L13.0078 7.05803C13.1293 6.96048 13.2871 6.90994 13.4482 6.91695C13.6093 6.92396 13.7612 6.98799 13.8722 7.09565C13.9832 7.20331 14.0446 7.34627 14.0437 7.49464C14.0428 7.64301 13.9795 7.78531 13.8672 7.89178Z" fill="#D8FDDE"/>
</svg>
