<svg width="810" height="117" viewBox="0 0 810 117" fill="none" xmlns="http://www.w3.org/2000/svg">
<g clip-path="url(#clip0_286_507)">
<path d="M394.5 116.9C394.2 116.9 394 116.9 394 116.9H0V115.9H393.9C394.6 115.9 468.9 116.2 556.7 102.1C608.2 93.8004 654.3 82.3004 693.6 67.9004C742.7 49.8004 781.3 27.1004 808.3 0.400391L809 1.10039C781.9 28.0004 743.2 50.7004 694 68.8004C654.6 83.3004 608.5 94.8004 556.9 103.1C472.9 116.6 401.4 116.9 394.5 116.9Z" fill="white"/>
<path d="M809.1 10H808.1L808.4 1L799.4 1.1V0.1L809.4 0L809.1 10Z" fill="white"/>
</g>
<defs>
<clipPath id="clip0_286_507">
<rect width="809.4" height="116.9" fill="white"/>
</clipPath>
</defs>
</svg>
