<svg width="21" height="20" viewBox="0 0 21 20" fill="none" xmlns="http://www.w3.org/2000/svg">
<path d="M7.31973 19.8417C7.20354 19.8417 7.1106 19.8417 6.99441 19.8417C6.9247 19.8196 6.87822 19.7975 6.80851 19.7533C6.41348 19.5987 5.99521 19.444 5.62341 19.2673C5.06572 19.0022 4.53126 18.6929 4.04328 18.3394C3.48559 17.9417 2.97437 17.4778 2.50962 16.9697C2.11459 16.5278 1.76603 16.086 1.46395 15.5999C1.09215 15.0255 0.790066 14.429 0.557694 13.7883C0.325321 13.1476 0.162661 12.4849 0.092949 11.8C0.0464745 11.6233 0.0232372 11.4465 0 11.2919C0 10.8058 0 10.3198 0 9.85586C0 9.81167 0.0232372 9.74539 0.0232372 9.70121C0.0697117 9.10471 0.185898 8.5303 0.348559 7.9559C0.557694 7.20475 0.883015 6.49779 1.30129 5.81292C1.78927 5.01759 2.34696 4.28853 3.04408 3.64785C3.76443 2.98507 4.57774 2.41067 5.48399 1.96882C6.69232 1.37232 7.97037 1.01884 9.31813 0.908375C10.1314 0.842097 10.9447 0.86419 11.758 0.974653C12.4319 1.06302 13.1058 1.23976 13.7564 1.46069C14.5 1.7258 15.2204 2.07928 15.8943 2.49904C16.6611 2.98507 17.3582 3.55948 17.9856 4.24435C18.7989 5.15014 19.4263 6.14431 19.8678 7.27103C20.2396 8.2431 20.4488 9.23727 20.472 10.2756C20.4952 10.7837 20.472 11.2919 20.4023 11.8C20.3558 12.2419 20.2629 12.6837 20.1467 13.1035C19.8214 14.2744 19.2869 15.3569 18.5433 16.329C17.9856 17.0801 17.3117 17.7429 16.5682 18.2952C15.7548 18.8917 14.8951 19.3557 13.9423 19.7091C13.7797 19.7754 13.6403 19.8196 13.4776 19.8859C13.3614 19.8859 13.2685 19.8859 13.1523 19.8859C12.8734 19.7975 12.7805 19.5987 12.7572 19.3557C12.7572 19.2894 12.7572 19.2231 12.7572 19.1568C12.7572 18.4499 12.7572 17.7208 12.7572 17.0138C12.7572 16.7929 12.7572 16.5499 12.734 16.329C12.6875 15.8429 12.5249 15.379 12.1531 15.0034C12.1298 14.9813 12.1066 14.9592 12.0834 14.915C12.2693 14.893 12.4552 14.8488 12.6178 14.8267C13.3382 14.7383 14.0121 14.5395 14.6627 14.186C15.4992 13.7441 16.0569 13.1035 16.3823 12.2639C16.5449 11.8 16.6611 11.3361 16.7076 10.85C16.754 10.4303 16.754 10.0105 16.7076 9.59075C16.6146 8.86169 16.3358 8.2431 15.8478 7.69079C15.8013 7.62451 15.7548 7.58032 15.7084 7.51405C16.1034 6.51988 15.8478 5.43735 15.5689 4.92922C15.476 4.92922 15.3831 4.90713 15.2901 4.90713C14.988 4.90713 14.7092 4.9955 14.4536 5.10596C13.9191 5.30479 13.4311 5.54781 12.9431 5.85711C12.8502 5.92338 12.7572 5.94548 12.6411 5.90129C12.0137 5.74664 11.3862 5.65827 10.7356 5.61409C10.1314 5.5699 9.50403 5.61409 8.89986 5.68036C8.5513 5.72455 8.20275 5.81292 7.85419 5.8792C7.738 5.90129 7.64505 5.90129 7.52887 5.83501C7.27326 5.68037 7.04088 5.54781 6.76204 5.41525C6.32053 5.21642 5.87902 5.01759 5.41428 4.92922C5.22838 4.88503 5.04248 4.88503 4.85658 4.92922C4.50802 5.74664 4.41508 6.58616 4.76363 7.46986C4.69392 7.53614 4.62421 7.62451 4.57774 7.69079C4.06652 8.28729 3.78767 8.99425 3.7412 9.76749C3.71796 10.121 3.7412 10.4524 3.76443 10.8058C3.78767 11.3361 3.92709 11.8221 4.11299 12.3081C4.41508 13.0593 4.90306 13.6558 5.64665 14.0755C6.32053 14.4511 7.04088 14.672 7.80771 14.7825C7.99361 14.8046 8.17951 14.8267 8.38864 14.8709C8.34217 14.9371 8.29569 14.9813 8.24922 15.0255C8.20275 15.0918 8.13303 15.1581 8.08656 15.2243C7.9239 15.4674 7.80771 15.7325 7.76124 16.0197C7.738 16.1301 7.69153 16.1964 7.5521 16.2406C7.29649 16.329 7.04088 16.3953 6.78527 16.4173C6.5529 16.4394 6.29729 16.4394 6.06492 16.3953C5.64665 16.329 5.29809 16.086 5.01924 15.7767C4.87982 15.5999 4.78687 15.4232 4.64745 15.2464C4.29889 14.7825 3.85738 14.4953 3.25321 14.3848C3.11379 14.3627 2.95113 14.3627 2.81171 14.429C2.69552 14.4732 2.69552 14.5174 2.74199 14.6278C2.83494 14.7825 2.97437 14.893 3.11379 14.9813C3.34616 15.1139 3.53206 15.2906 3.69472 15.4895C3.92709 15.7767 4.08975 16.108 4.22918 16.4394C4.48479 17.058 4.99601 17.3894 5.64665 17.522C6.25082 17.6324 6.87822 17.6545 7.48239 17.5441C7.52887 17.5441 7.57534 17.5441 7.62181 17.522C7.62181 17.5882 7.64505 17.6545 7.64505 17.7208C7.64505 18.2289 7.64505 18.7371 7.66829 19.2452C7.71476 19.5324 7.59858 19.7533 7.31973 19.8417Z" fill="white"/>
</svg>
