<svg width="18" height="18" viewBox="0 0 18 18" fill="none" xmlns="http://www.w3.org/2000/svg">
<path d="M14.998 2.30957C14.1498 3.11598 13.3125 3.91208 12.4616 4.71849C12.4182 4.68242 12.3505 4.63347 12.2881 4.58194C11.5565 3.98422 10.711 3.62353 9.7544 3.49986C8.89808 3.38908 8.06073 3.46121 7.24777 3.73946C6.28847 4.06666 5.49448 4.61801 4.85495 5.36774C4.45931 5.83149 4.16935 6.35192 3.94443 6.91099C3.66531 7.61177 3.57047 8.33573 3.6355 9.07257C3.72764 10.134 4.13683 11.0873 4.83598 11.9221C5.38608 12.579 6.06355 13.0814 6.86838 13.4267C7.38597 13.6482 7.93065 13.7874 8.49702 13.8337C9.43463 13.9136 10.3452 13.8054 11.2204 13.4705C12.0632 13.1484 12.7569 12.6434 13.2637 11.9195C13.5672 11.4866 13.7704 11.01 13.8788 10.4999C13.887 10.4664 13.887 10.4329 13.8951 10.3814C12.261 10.3814 10.6378 10.3814 9.00647 10.3814C9.00647 9.2658 9.00647 8.16827 9.00647 7.063C11.8247 7.063 14.6349 7.063 17.4613 7.063C17.483 7.17893 17.5073 7.29745 17.5236 7.41338C17.6049 7.96731 17.651 8.52381 17.632 9.0803C17.5968 10.201 17.399 11.2908 16.9627 12.3343C16.6077 13.1845 16.1145 13.9522 15.4749 14.6376C14.7216 15.444 13.8219 16.0546 12.7867 16.4874C11.906 16.8558 10.9874 17.0697 10.0308 17.1573C9.54574 17.2036 9.05796 17.2191 8.57018 17.1959C7.04724 17.1238 5.63268 16.7141 4.32923 15.9618C3.64634 15.5676 3.02849 15.0936 2.47839 14.5422C1.57329 13.6431 0.912081 12.5996 0.486631 11.4197C0.272551 10.8297 0.123508 10.2242 0.055761 9.60331C0.0178228 9.25035 -0.00656608 8.89223 0.00156354 8.53669C0.0205327 7.50613 0.223773 6.50907 0.616705 5.54808C0.968988 4.68757 1.44864 3.90178 2.0692 3.19327C2.78189 2.37913 3.62195 1.71443 4.59209 1.19142C5.46467 0.72252 6.39687 0.405625 7.38055 0.233007C8.03905 0.11707 8.70568 0.0732718 9.37502 0.101612C10.2774 0.137681 11.1581 0.289688 12.0117 0.578243C13.0144 0.918325 13.9168 1.42072 14.7243 2.08027C14.8219 2.16014 14.914 2.24001 14.998 2.30957Z" fill="white"/>
</svg>
