<svg xmlns="http://www.w3.org/2000/svg" viewBox="0 0 25 19"><defs><style>.cls-1{fill:#fff;}</style></defs><g id="Layer_2" data-name="Layer 2"><g id="Layer_1-2" data-name="Layer 1"><path class="cls-1" d="M24.9.79h0a.25.25,0,0,1,0,.07l-.56.51L24,1.64,15.42,9.5,24,17.36l.28.26.25.22.06.09h0a.46.46,0,0,1,.17.09.52.52,0,0,1,.1.11A1.52,1.52,0,0,0,25,17.5V.71Z"/><path class="cls-1" d="M24,18.69a.72.72,0,0,1-.19-.11l-.2-.18-.43-.4-8.54-7.82-1.84,1.69a.51.51,0,0,1-.68,0l-1.84-1.69L1.78,18l-.43.4-.2.18s0,0,0,0h0s0,0,0,0a.34.34,0,0,1-.08.09l-.1.08a0,0,0,0,1,0,0A1.41,1.41,0,0,0,1.5,19h22a1.59,1.59,0,0,0,.65-.15l0-.06A.37.37,0,0,1,24,18.69Z"/><path class="cls-1" d="M.84.13l.37.34L1.79,1,12.5,10.82,23.21,1l.58-.53.37-.34h0s0,0,0,0L24.29,0H.7L.75.08Z"/><path class="cls-1" d="M9.58,9.5,1,1.64.76,1.41.16.87a.56.56,0,0,1,0-.08A.3.3,0,0,1,0,.75l0,0V17.5a1.41,1.41,0,0,0,.14.58h0l.17-.13.09-.05.08-.05.28-.25L1,17.36Z"/></g></g></svg>