<svg id="Layer_1" data-name="Layer 1" xmlns="http://www.w3.org/2000/svg" viewBox="0 0 32 32"><defs><style>.cls-1{fill:none;stroke:#fff;stroke-miterlimit:10;}</style></defs><path id="discord-brands" className="cls-1" d="M26.5,6.44l0,0A24.94,24.94,0,0,0,20.31,4.5a.1.1,0,0,0-.1,0c-.28.51-.53,1-.76,1.57a22.8,22.8,0,0,0-6.9,0,15.28,15.28,0,0,0-.78-1.57.12.12,0,0,0-.1,0A25.41,25.41,0,0,0,5.53,6.4a.08.08,0,0,0,0,0A25.44,25.44,0,0,0,1,23.61a.1.1,0,0,0,0,.07,24.92,24.92,0,0,0,7.54,3.81.08.08,0,0,0,.1,0A17.46,17.46,0,0,0,10.26,25a.1.1,0,0,0,0-.13h0A16.87,16.87,0,0,1,7.85,23.7a.1.1,0,0,1,0-.14l0,0c.16-.12.32-.24.47-.37a.09.09,0,0,1,.1,0,17.89,17.89,0,0,0,15.17,0,.09.09,0,0,1,.1,0c.15.13.31.25.47.37a.11.11,0,0,1,0,.14l0,0a15.45,15.45,0,0,1-2.36,1.12.1.1,0,0,0-.05.13h0a20.08,20.08,0,0,0,1.54,2.51.12.12,0,0,0,.11,0,25.21,25.21,0,0,0,7.55-3.81.16.16,0,0,0,0-.07A25.35,25.35,0,0,0,26.5,6.44ZM11,20.19a3.06,3.06,0,0,1,0-6.08,3.06,3.06,0,0,1,0,6.08Zm10,0a3.06,3.06,0,0,1,0-6.08,3.06,3.06,0,0,1,0,6.08Z"/></svg>