<svg id="Layer_1" data-name="Layer 1" xmlns="http://www.w3.org/2000/svg" viewBox="0 0 40 32"><defs><style>.cls-1{fill:none;stroke:#fff;stroke-miterlimit:10;}</style></defs><g id="SARhF5.tif"><g id="Group_306" data-name="Group 306"><path id="Path_6681" data-name="Path 6681" className="cls-1" d="M22.6,15.57a11,11,0,1,1-11-11h0A10.89,10.89,0,0,1,22.6,15.38Z"/><path id="Path_6682" data-name="Path 6682" className="cls-1" d="M23.41,15.45a15.46,15.46,0,0,1,1.42-6.92,6.9,6.9,0,0,1,2.08-2.7,3.3,3.3,0,0,1,4.16-.08,7.39,7.39,0,0,1,2.48,3.47,16.14,16.14,0,0,1,1.1,5.32,16.52,16.52,0,0,1-.95,6.83,14.09,14.09,0,0,1-1.44,2.71,4.88,4.88,0,0,1-1.32,1.28A3.2,3.2,0,0,1,27,25.29a6.32,6.32,0,0,1-1.83-2.12,14.89,14.89,0,0,1-1.77-6.49C23.39,16.28,23.41,15.87,23.41,15.45Z"/><path id="Path_6683" data-name="Path 6683" className="cls-1" d="M39.38,15.58a26.79,26.79,0,0,1-.72,7.08,6.73,6.73,0,0,1-.7,1.79c-.37.66-.91.65-1.28,0A7.68,7.68,0,0,1,36,22.64a28.08,28.08,0,0,1-.72-6.2,31.39,31.39,0,0,1,.71-8,7.38,7.38,0,0,1,.63-1.72c.43-.83,1.06-.82,1.49,0a7.56,7.56,0,0,1,.59,1.65A27.46,27.46,0,0,1,39.38,15.58Z"/></g></g></svg>