<svg xmlns="http://www.w3.org/2000/svg" viewBox="0 0 30.78 30.02"><defs><style>.cls-1{fill:#fff;}</style></defs><g id="Layer_2" data-name="Layer 2"><g id="Layer_1-2" data-name="Layer 1"><g id="CxwUp9.tif"><path class="cls-1" d="M20.15,30h-.36a.93.93,0,0,1-.56-1c0-1.57,0-3.14-.05-4.71a3.06,3.06,0,0,0-.73-1.9l-.23-.26h.16a9.9,9.9,0,0,0,3.17-.83A5.7,5.7,0,0,0,24.2,19a8.2,8.2,0,0,0,1-3.35,6.34,6.34,0,0,0-1.4-5.07.34.34,0,0,1-.07-.28,5.25,5.25,0,0,0,0-3.28c-.22-.73-.34-.82-1.09-.66h-.06a10.38,10.38,0,0,0-3,1.39.67.67,0,0,1-.61.11,14.06,14.06,0,0,0-7,0,.76.76,0,0,1-.62-.09c-.74-.4-1.48-.78-2.24-1.13a2.81,2.81,0,0,0-1.51-.3.41.41,0,0,0-.25.15,5.27,5.27,0,0,0-.18,3.69.4.4,0,0,1-.1.48,5.67,5.67,0,0,0-1.23,2.4,8.65,8.65,0,0,0-.08,3A7.36,7.36,0,0,0,6.9,19.39a6.3,6.3,0,0,0,3.93,2.5c.58.15,1.19.23,1.82.34a3.46,3.46,0,0,0-.94,1.92.19.19,0,0,1-.11.15,3.72,3.72,0,0,1-2.72.21A3,3,0,0,1,7.23,23a3.6,3.6,0,0,0-1.5-1.42,2.06,2.06,0,0,0-1.34-.18c-.28.07-.33.18-.16.4a3.64,3.64,0,0,0,.53.51,6.06,6.06,0,0,1,.83.77,10.23,10.23,0,0,1,.8,1.54,2.83,2.83,0,0,0,2.1,1.71,6.9,6.9,0,0,0,2.56.11l.56-.08V29A.91.91,0,0,1,11,30h-.36l-.5-.19a15,15,0,0,1-8.95-8.55A14.82,14.82,0,0,1,.73,10.81,15.07,15.07,0,0,1,6.24,3,14.92,14.92,0,0,1,13.86.08,15.3,15.3,0,0,1,28.09,6.69a14.68,14.68,0,0,1,2.45,6c.09.56.16,1.13.24,1.69v1.8c-.07.57-.11,1.15-.21,1.72a14.19,14.19,0,0,1-1.95,5.31A15.49,15.49,0,0,1,24.21,28,15.82,15.82,0,0,1,20.15,30Z"/></g></g></g></svg>