<svg xmlns="http://www.w3.org/2000/svg" viewBox="0 0 38.8 22"><defs><style>.cls-1{fill:#fff;}</style></defs><g id="Layer_2" data-name="Layer 2"><g id="Layer_1-2" data-name="Layer 1"><g id="SARhF5.tif"><g id="Group_306" data-name="Group 306"><path id="Path_6681" data-name="Path 6681" class="cls-1" d="M22,11A11,11,0,1,1,11,0h0A10.9,10.9,0,0,1,22,10.78V11Z"/><path id="Path_6682" data-name="Path 6682" class="cls-1" d="M22.81,10.88A15.46,15.46,0,0,1,24.23,4a6.9,6.9,0,0,1,2.08-2.7,3.3,3.3,0,0,1,4.16-.08A7.44,7.44,0,0,1,33,4.65,16.19,16.19,0,0,1,34.05,10a16.52,16.52,0,0,1-.95,6.83,14.09,14.09,0,0,1-1.44,2.71,4.73,4.73,0,0,1-1.32,1.28,3.2,3.2,0,0,1-3.94-.07,6.23,6.23,0,0,1-1.83-2.12,14.89,14.89,0,0,1-1.77-6.49C22.79,11.71,22.81,11.3,22.81,10.88Z"/><path id="Path_6683" data-name="Path 6683" class="cls-1" d="M38.78,11a26.79,26.79,0,0,1-.72,7.08,6.73,6.73,0,0,1-.7,1.79c-.37.66-.91.65-1.28,0a7.75,7.75,0,0,1-.68-1.81,28.08,28.08,0,0,1-.72-6.2,31.17,31.17,0,0,1,.71-8A7.55,7.55,0,0,1,36,2.15c.43-.83,1.06-.82,1.49,0A7.56,7.56,0,0,1,38.1,3.8,27.74,27.74,0,0,1,38.78,11Z"/></g></g></g></g></svg>