<svg xmlns="http://www.w3.org/2000/svg" viewBox="0 0 30.21 23.02"><defs><style>.cls-1{fill:#fff;}</style></defs><g id="Layer_2" data-name="Layer 2"><g id="Layer_1-2" data-name="Layer 1"><path id="discord-brands" class="cls-1" d="M25.63,2h0A25.31,25.31,0,0,0,19.44,0h-.1a14.27,14.27,0,0,0-.76,1.57,22.8,22.8,0,0,0-6.9,0A16.37,16.37,0,0,0,10.9,0h-.1a25.28,25.28,0,0,0-6.14,1.9h0A25.42,25.42,0,0,0,.13,19.12a.08.08,0,0,0,0,.07A24.92,24.92,0,0,0,7.67,23a.07.07,0,0,0,.1,0,17.15,17.15,0,0,0,1.62-2.49.1.1,0,0,0,0-.13h0A15.31,15.31,0,0,1,7,19.21a.1.1,0,0,1,0-.14H7c.16-.12.32-.24.47-.37a.09.09,0,0,1,.1,0,17.89,17.89,0,0,0,15.17,0,.09.09,0,0,1,.1,0c.15.13.31.25.47.37a.12.12,0,0,1,0,.14h0a15.41,15.41,0,0,1-2.36,1.12.1.1,0,0,0-.05.13h0A18.34,18.34,0,0,0,22.42,23a.11.11,0,0,0,.11,0,25.09,25.09,0,0,0,7.55-3.81v-.07A25.42,25.42,0,0,0,25.63,2ZM10.13,15.7a3.06,3.06,0,0,1,0-6.08,3.06,3.06,0,0,1,0,6.08Zm10,0a3.06,3.06,0,0,1,0-6.08,3.06,3.06,0,0,1,0,6.08Z"/></g></g></svg>