<svg xmlns="http://www.w3.org/2000/svg" viewBox="0 0 33 32.19"><defs><style>.cls-1{fill:none;stroke:#fff;stroke-miterlimit:10;}</style></defs><g id="Layer_2" data-name="Layer 2"><g id="Layer_1-2" data-name="Layer 1"><g id="CxwUp9.tif"><path className="cls-1" d="M21.45,31.69h-.37a1,1,0,0,1-.59-1c0-1.63,0-3.26,0-4.9a3.17,3.17,0,0,0-.76-2l-.24-.26.16,0a11.15,11.15,0,0,0,3.31-.86,5.89,5.89,0,0,0,2.75-2.4,8.63,8.63,0,0,0,1-3.47A6.59,6.59,0,0,0,25.2,11.5a.36.36,0,0,1-.07-.3,5.42,5.42,0,0,0,0-3.4C24.92,7,24.79,7,24,7.11l-.06,0a10.55,10.55,0,0,0-3.12,1.44.76.76,0,0,1-.64.11,14.71,14.71,0,0,0-7.31,0,.8.8,0,0,1-.64-.09c-.77-.41-1.54-.81-2.33-1.18a2.94,2.94,0,0,0-1.57-.31.34.34,0,0,0-.26.16,5.52,5.52,0,0,0-.19,3.84.43.43,0,0,1-.1.49,5.79,5.79,0,0,0-1.28,2.5,8.81,8.81,0,0,0-.09,3.07A7.74,7.74,0,0,0,7.6,20.6a6.61,6.61,0,0,0,4.08,2.6c.61.15,1.24.23,1.9.36a3.52,3.52,0,0,0-1,2,.22.22,0,0,1-.12.16,3.93,3.93,0,0,1-2.82.21A3,3,0,0,1,8,24.46,3.67,3.67,0,0,0,6.45,23,2,2,0,0,0,5,22.75c-.28.07-.34.19-.17.41a4.76,4.76,0,0,0,.56.54,5.47,5.47,0,0,1,.86.8,8.94,8.94,0,0,1,.89,1.6,2.93,2.93,0,0,0,2.14,1.77A7.74,7.74,0,0,0,12,28l.58-.09c0,.94,0,1.84,0,2.75a1,1,0,0,1-.61,1h-.37l-.53-.19a15.68,15.68,0,0,1-9.31-8.89,15.43,15.43,0,0,1-.49-10.89A15.54,15.54,0,0,1,7,3.64,15.5,15.5,0,0,1,14.91.58a15.93,15.93,0,0,1,14.8,6.86,15.33,15.33,0,0,1,2.55,6.27c.09.58.16,1.17.24,1.75v1.87c-.07.6-.12,1.2-.21,1.79a15.14,15.14,0,0,1-2,5.52,16.32,16.32,0,0,1-4.59,4.95A16.64,16.64,0,0,1,21.45,31.69Z"/></g></g></g></svg>