<svg xmlns="http://www.w3.org/2000/svg" viewBox="0 0 123.84 121.47"><defs><style>.cls-1{fill:#fff;}</style></defs><g id="Layer_2" data-name="Layer 2"><g id="Layer_1-2" data-name="Layer 1"><path className="cls-1" d="M66.4,0a17.7,17.7,0,0,0,2.71,1.45C77,4,81.16,14.58,80.17,20.25c-1.38,8-8.3,14.57-15.76,15.22-9.14.8-16.51-3.86-19.72-11.68-3.64-8.88,2.06-19.22,9.46-22.12C55.29,1.22,56.36.56,57.46,0Z"/><path className="cls-1" d="M0,55.73c2.18-2.81,4.28-5.67,6.54-8.42,5.81-7.05,22.33-5.07,27.08,4C39.15,61.8,35.74,73,25,77.47c-7.8,3.22-17.41,0-22.28-7.43Q1.36,68,0,65.86Z"/><path className="cls-1" d="M61.53,78.55c-10-.1-18.37-8.51-18.08-18.14S52.08,42.94,62.3,43.05A18.22,18.22,0,0,1,80.38,61.2C80.54,70.48,71.66,78.65,61.53,78.55Z"/><path className="cls-1" d="M62.2,86.1c9.71.06,18.69,8.34,18.09,17.36-.77,11.71-7.9,18.12-18.7,18-11.55-.12-18.14-8.66-18-18C43.66,94.7,51.36,85.17,62.2,86.1Z"/><path className="cls-1" d="M105.76,43.05c9.76.09,18,8.07,18.08,17.59.11,10-8.49,17.86-19,18A17.66,17.66,0,0,1,87.22,60.7C87.34,52.56,93.11,42.62,105.76,43.05Z"/><path className="cls-1" d="M19,86.16c11.8-.55,20.57,12.64,16.85,21.92-1.88,4.71-4.84,6.16-8.64,3A137.74,137.74,0,0,1,11,95.17c-3.87-4.55-1.9-8.17,4.13-9A28.61,28.61,0,0,1,19,86.16Z"/><path className="cls-1" d="M17.25,35.5A18,18,0,0,1,13.46,35c-4.55-1.3-5.89-4.3-2.93-8,3.93-4.91,8.5-9.32,12.89-13.85A24.11,24.11,0,0,1,27,10.59c4-2.84,7.24-1.81,8.7,2.79C39.23,24.57,30.74,35.5,17.25,35.5Z"/><path className="cls-1" d="M114.77,29.19c-.33,4.17-2.76,5.88-6.63,6.29-10.34,1.09-19.58-4.66-21-16.89a12.92,12.92,0,0,1,1.26-6.06c1.58-3.82,4.73-4.61,8.16-2.21A66.53,66.53,0,0,1,114.77,29.19Z"/><path className="cls-1" d="M115.67,90.07c-2,3.29-3.14,6.35-5.24,8.52a159.43,159.43,0,0,1-13.55,12.29c-3.85,3.15-6.71,2-8.82-2.49-2.4-5.1-.37-9.77,1.88-13.79,4.16-7.46,12.84-10.43,21.43-7.61C112.66,87.41,113.69,88.61,115.67,90.07Z"/></g></g></svg>