<svg xmlns="http://www.w3.org/2000/svg" viewBox="0 0 569.2 994.39"><defs><style>.cls-1{fill:#fff;}</style></defs><g id="Layer_2" data-name="Layer 2"><g id="Layer_1-2" data-name="Layer 1"><g id="_9r9wmf" data-name="9r9wmf"><path className="cls-1" d="M20.62,0l358,351.19c1.37-2.15,2.46-3.75,3.44-5.41l79.53-134.72c3.3-5.59,6.6-11.19,9.95-16.75a42.41,42.41,0,0,1,2.76-3.55c.79,2.13,1.41,3.45,1.78,4.83q46.58,171.66,93.08,343.34c0,.16-.4.45-.92,1-1.06-.9-2.21-1.75-3.22-2.75Q529.17,502,493.33,466.81c-10.36-10.18-21.09-19.88-33.66-27.35-17.82-10.59-36.86-16.13-57.73-14-16.41,1.71-31.28,7.79-45.1,16.55-17.32,11-32.09,24.83-45.45,40.31-17.7,20.51-32.68,42.9-46.41,66.2Q194.93,667.41,124.75,786.17,64.66,888,4.55,989.75c-.9,1.52-1.93,3-3,4.64-2-1.86-1.47-3.79-1.44-5.5q.33-21.48.8-43C1.4,923.28,2,900.63,2.46,878c.57-27.65,1-55.3,1.57-83,.55-27.31,1.19-54.63,1.72-81.94.46-23.49.77-47,1.24-70.46C7.4,622.81,8,603,8.43,583.18c.26-12.16.33-24.32.57-36.48.46-23.65,1-47.3,1.46-71,.53-27.15,1-54.3,1.55-81.45.42-20.49,1-41,1.42-61.46.24-12,.28-24,.53-36,.42-20.32,1-40.63,1.41-61,.26-11.66.37-23.32.61-35,.49-24.65,1.07-49.3,1.55-73.95.51-26.49.93-53,1.42-79.46q.4-21.74.91-43.47A32.61,32.61,0,0,1,20.62,0Zm409,405.38,1,1.05.28.18-.4-.07-1-1.07a1.18,1.18,0,0,0-.07-.43c0-.07-.21-.07-.32-.1Zm109,101.95,1.09,1.13.23.26-.35-.15-1.09-1.11-.09-.23ZM323.64,460.5a1.3,1.3,0,0,0-.41.09c-.07,0-.06.2-.08.31l.38-.51a1.44,1.44,0,0,0,.37-.1c.05,0,.05-.16.08-.25Zm195,21-.16-.19.27.09.9,1.05c4.39,4.77,12.21,10.76,15.53,11.81-.29-.71-.36-1.57-.81-1.88-4.91-3.32-9.88-6.56-14.83-9.82Zm-90.09-68.12.1.31-.18-.26-.11-.18Zm103,83.12-1-1.05-1.11-1.2-.35.55,1.59.52,1,1.09c.33.34.66.67,1,1a7.46,7.46,0,0,0,4.64,4.05c-.94-2.1-2.21-3.8-4.73-4Zm-34-37-.2-.28.32.16,2,.91c.29,1.29.76,2.28,2.76,1.23l-2.87-1.11Zm-240,93-.85,2.09c-4.18,3.07-6.17,6-6.39,10.41l6.26-10.53.87-2.07.27-.11ZM426.65,407.36l.61.48-.7-.39-1.13-1.34-.49.63Zm-113.09,60c2.4,0,3-1.65,3.71-3.75-2.65,1.11-2.65,1.11-3.62,3.84l-.22.19Zm-14,16c2.49-.28,2.57-2.36,3.73-4.73-2.77,1.23-3.54,2.79-3.63,4.83l-.21.2Zm188.09-32.87-.31-.2.41.08c3.93,3.26,8.38,5.49,11.92,5.39A28.32,28.32,0,0,0,487.64,450.45Zm-10-8-.3-.17.4.05a10.48,10.48,0,0,0,2.17,1.76c4.73,2.06,9.5,4,14.28,6,.53.22,1.21.09,3.09.19-1.65-1.65-2.35-2.95-3.35-3.26C488.55,445.33,483.08,443.92,477.65,442.43Zm-206.08,86c-4.65,5.12-9.37,10.19-13.92,15.4-1.28,1.48-2,3.43-1.81,6.63,5.53-7.35,10.4-13.8,15.22-20.29.34-.46.27-1.23.39-1.86l.41-.1Zm271-23-.15-.29.23.21c.33.87.4,2,1,2.57,5.89,5.32,11.87,10.54,17.85,15.76.16.13.57,0,1-.07.53-2.47-.9-4-2.63-5.35-4.79-3.81-9.54-7.68-14.36-11.45A13.91,13.91,0,0,0,542.57,505.48Zm-348,156.88a4.94,4.94,0,0,0,1.08-1c4.92-8.26,10-16.45,14.64-24.87a30.65,30.65,0,0,0,3.29-12c-5.38,7.25-10.77,14.44-15.13,22.2a30.57,30.57,0,0,0-3.76,15.75l-.26,0Zm-59,51.12c-.67.4-1.55.64-2,1.22-4.59,5.91-9.17,11.84-13.61,17.86a9.34,9.34,0,0,0-1.54,4.11c-1.07,7.91-2,15.84-2.95,23.77a47.12,47.12,0,0,0,0,5,14.65,14.65,0,0,0,1.91-1.82c4.45-6.63,8.92-13.25,13.25-20a12.37,12.37,0,0,0,1.71-4.6c1.15-6.89,2.17-13.8,3.13-20.72a36.83,36.83,0,0,0,0-4.93l.28-.21ZM22.63,5.65A27.75,27.75,0,0,0,22,9.45c-.21,10-.32,20-.57,29.94-.05,2.12,1,3.37,2.44,4.61C30.44,49.86,37,55.76,43.6,61.6a23.73,23.73,0,0,0,3.07,1.92,48.1,48.1,0,0,0,.72-4.9c.3-8.48.5-17,.82-25.44a6.55,6.55,0,0,0-2.28-5.25C38.87,21.1,31.9,14.2,24.87,7.35A26.12,26.12,0,0,0,22.63,5.65Zm-.55,40.21a5.72,5.72,0,0,0-.68,1.54c-.3,10.62-.53,21.24-.88,31.86a6.18,6.18,0,0,0,2.65,5.5C29.83,90,36.4,95.33,43,100.61a14.82,14.82,0,0,0,2.15,1.19,6.71,6.71,0,0,0,.58-1.65c.37-9.78.67-19.57,1.08-29.35a6.53,6.53,0,0,0-2.6-5.57c-6.75-5.9-13.39-11.92-20.09-17.89C23.56,46.82,22.86,46.42,22.08,45.86ZM20,127.66a23.91,23.91,0,0,0-.43,2.74c-.27,10.65-.46,21.31-.79,32A5.64,5.64,0,0,0,21.88,168c5.34,3.08,10.52,6.41,15.78,9.62,1.52.92,3.09,1.76,4.93,2.81a10.85,10.85,0,0,0,.7-2.25c.36-10.31.65-20.63,1-30.95.08-2.28-.93-3.66-2.73-4.91-6.17-4.25-12.24-8.65-18.37-13A32.86,32.86,0,0,0,20,127.66Zm23.92,13.07a19,19,0,0,0,.75-3.2c.36-9.45.61-18.91,1-28.36a6.52,6.52,0,0,0-2.9-5.9c-6.16-4.79-12.21-9.72-18.32-14.57-1-.79-2.13-1.42-3.46-2.3a15,15,0,0,0-.5,2.26c-.29,10.45-.5,20.9-.88,31.35a6.41,6.41,0,0,0,3.09,6.23c5.78,3.89,11.39,8,17.1,12C41,139.11,42.24,139.76,43.88,140.73Zm429.48,55.44c-1.13,1.69-2,2.85-2.71,4.08-7.52,12.75-14.88,25.6-22.64,38.2-2.33,3.79-2.88,7.06-1,11.08,1.82,3.83,3.12,7.9,4.85,12.39a27.23,27.23,0,0,0,2.46-2.65c8.15-12.16,16.22-24.37,24.42-36.5a6.79,6.79,0,0,0,.78-6.13c-1.61-5.76-3.16-11.55-4.78-17.31A26.23,26.23,0,0,0,473.36,196.17ZM40.62,261.84c-.21-13.55,1.35-25.89.84-38-8.65-5.52-19.58-10.76-23.58-11.16-.23,13.11-.47,26.17-.7,39.48ZM18,208.79C26,212.9,33.38,217,41.14,220.57a11.81,11.81,0,0,0,.59-2c.43-10.47.78-21,1.28-31.42.12-2.72-1.1-4.27-3.31-5.57-5.74-3.39-11.37-6.94-17.06-10.4-.95-.57-2-1-3.69-1.86C18.2,182.78,18.48,195.65,18,208.79Zm-.66,45.89c-.86,14.37-.77,27.73-.95,40.84,5.76,2.92,18.7,6.66,22.77,6.48.36-12.49.73-25,1.1-37.82Zm-1.78,88.41c-.49,14.87-1.17,28.72-.89,43.12,7.42.32,14.2,1.79,21.57,1.4.47-13.4.92-26.47,1.39-40Zm-.09-2.41C23,342.26,30,344.18,37.74,345c-.14-13.52,1.35-26.37.87-39.52l-22.19-6.82C15.6,312.91,15.64,326.46,15.43,340.68Zm-1,47.68c.16,14.92-1.22,29.06-.64,43.38,6.23,0,11.84,0,17.45,0a16.84,16.84,0,0,0,2.75-.41c1.56-6,2.3-36.85.91-41Zm-.93,46.05c0,15-1.15,29.34-.69,44.2a174.83,174.83,0,0,0,19.74-2.77c1.21-4.44,2.09-38.4,1.17-41.43ZM46.53,146.05c-.42,12.8-.82,24.51-1.19,35.81,6.74,5.33,20.59,13.42,24.26,14.11.53-10.79,1.05-21.53,1.59-32.46C63.26,157.67,55.36,152.06,46.53,146.05ZM44,222.17l23.37,12c1.61-12,1.25-23.24,2.16-34.35-7.73-4.72-15-9.15-22.23-13.55-.37-.22-.92-.12-1.8-.21C44.35,198.12,44.56,210.05,44,222.17ZM11.57,526.29l19.52-5.16a11.79,11.79,0,0,0,.65-2.32q.61-19,1.12-37.92a9.62,9.62,0,0,0-.71-2.51c-5.63.78-11.06,1.5-16.47,2.3a19.71,19.71,0,0,0-3.07,1C12.27,496.21,11.93,510.63,11.57,526.29ZM71.14,160.52c.79-11.77,1.41-22.29,1.68-32.91-8.1-6.56-15.86-13.18-24.16-19.2-.49.77-.8,1-.81,1.3C47.43,120,47,130.3,46.72,140.6a5.23,5.23,0,0,0,1.79,3.77C55.59,149.6,62.81,154.62,71.14,160.52ZM29.45,567.1c1.26-5.15,2.23-39.8,1.2-43.5l-18.94,5.11c-.15,5.23-.3,10.18-.43,15.13s-.37,10-.38,15-.83,9.81.6,15.36ZM43.89,224.76c-.43,13.26-.83,25.47-1.22,37.38C48.77,265.78,62,271,65.9,271.3q.84-15.93,1.67-31.85a3.58,3.58,0,0,0-2.15-3.62Zm28-101.1,1.16-.6,1.47-28.77c.11-2.13-1.43-3.26-2.78-4.47Q64.14,83,56.5,76.21c-2.08-1.85-4.18-3.67-6.78-5.95a42.66,42.66,0,0,0-.81,5c-.36,8.8-.59,17.6-1,26.4a5.64,5.64,0,0,0,2.56,5c5.23,4.1,10.39,8.3,15.59,12.44C68,120.66,70,122.15,71.91,123.66ZM74.1,88.75a15.53,15.53,0,0,0,.69-2.31c.49-8.62.9-17.24,1.47-25.85.15-2.28-.91-3.75-2.39-5.18C67,48.69,60.1,42,53.19,35.24A17.43,17.43,0,0,0,51,33.73a8.91,8.91,0,0,0-.71,2.11c-.35,9.29-.61,18.58-1,27.86-.1,2.46,1.06,4,2.75,5.51,5.36,4.71,10.67,9.48,16,14.22C69.87,85.05,71.72,86.66,74.1,88.75ZM63.94,310.32c1-11.84,1.09-23.52,1.82-34.89-5.6-3.5-19.28-8.91-23.26-9.13-.16,12.51-1.43,25-.92,37.66,6.85,2.15,13.32,4.19,19.81,6.19A14.38,14.38,0,0,0,63.94,310.32Zm-1.71,39.81c.57-12.74,1.1-24.63,1.64-36.82l-22.31-6.92c-1.42,13.24-1,26-1.79,39A217.72,217.72,0,0,0,62.23,350.13ZM38.35,388.28l21.94,2c.23-13,1.73-25.24,1.37-37.88L39.82,348.1C39.32,361.72,38.85,374.6,38.35,388.28ZM57.52,431c1.37-5,2.59-33.83,1.67-38.35a189.24,189.24,0,0,0-21-1.9c-.41,13.78-.8,27-1.2,40.25Zm-20.73,2.71c-.23,14.2-1.22,27.68-1.19,41.83l19.86-2.88c1.6-5.36,2.76-35.07,1.63-38.95ZM28.46,613.49c.61-14.61,1.53-29,1.23-43.88C22.78,572,16.69,574.5,11,577c-1.32,12.6-1.49,41.86-.12,45.8ZM56.07,475l-20.52,2.87c-.71,14.18-1.33,28-1.37,42.43l20-5.35C54.84,501.69,55.43,488.84,56.07,475ZM28.49,616.13c-5.81,3.07-10.22,5.72-14.9,7.77-3.35,1.47-4.12,3.7-4.15,7-.08,10.63-.44,21.26-.64,31.89A77.77,77.77,0,0,0,9,673l18-12.06C27.49,646.09,28,631.72,28.49,616.13ZM481.6,224.34c-1.06.45-1.27.48-1.35.59q-13,19.19-25.91,38.39A4.66,4.66,0,0,0,454,268c1.51,3.87,2.86,7.8,4.35,11.67a17,17,0,0,0,1.77,2.65c9-11.76,17.61-23.09,26.18-34.49a4.33,4.33,0,0,0,.74-3.19C485.32,237.92,483.46,231.22,481.6,224.34ZM32.38,565.91l19-7.55c1.72-6.65,2.85-36.5,1.52-40.71-5.11,1.37-10.25,2.73-15.37,4.14-1.1.3-2.14.78-3.67,1.34C33.38,537,32.9,550.93,32.38,565.91Zm.64,2.24c-1.23,5.16-2.29,39.32-1.41,43.06A4.21,4.21,0,0,0,33,611c4.87-2.52,9.69-5.13,14.58-7.61,2.11-1.07,2.56-2.81,2.65-4.93.49-11.29,1.05-22.57,1.53-33.86a20,20,0,0,0-.64-3.64ZM67.79,275.63c-.05,12.77-1.53,24.26-1.27,35.61,6.72,3.11,18.66,6.54,22.56,6.44.83-10.79,1.86-21.6,1.83-32.49ZM26.48,665a4.64,4.64,0,0,0-1.6.24c-4.85,3.2-9.76,6.33-14.46,9.74a5.33,5.33,0,0,0-1.75,3.77C8.25,692.33,8,706,7.74,719.57a17.31,17.31,0,0,0,.65,3.13C9.93,721.64,11,721,12,720.17c3.23-2.6,6.32-5.41,9.68-7.84a9.09,9.09,0,0,0,4-8c.1-8.64.57-17.27.79-25.9C26.57,674,26.48,669.53,26.48,665ZM93.59,247.75c.71-10.33,1.32-19.6,2-28.87.18-2.37-1-3.63-2.87-4.75-6.13-3.69-12.19-7.48-18.3-11.2a19.07,19.07,0,0,0-2.92-1.1c-.54,11.47-1,22.51-1.58,33.77ZM71.66,198.37c7.83,5,15.43,9.89,24.21,14.73.7-10.8,1.34-20.67,2-30.78L73.35,165C72.76,176.66,72.22,187.22,71.66,198.37Zm15,159.24c-7.73-1.53-14.7-3.43-21.87-4.15-1.23,5.36-2.34,33-1.43,37.13l21,1.91C85.09,380.7,85.83,369.5,86.63,357.61Zm-22.25-7.37c7.15,2.37,18.82,4.46,22.3,4.06.72-11,2-22,2-32.77C82.19,318.45,70,315,66,315.07Q65.21,332.59,64.38,350.24ZM97.77,179.43c1.21-10.64,1.57-20.33,2.08-29.69-5.92-6.06-21.27-17.89-24.86-19-.51,10.51-1,20.89-1.51,31.48Zm-7,103.22a14.43,14.43,0,0,0,.87-2.77c.62-8.95,1.15-17.9,1.78-26.85.15-2.19-.93-3.3-2.75-4.21-4.46-2.21-8.84-4.57-13.28-6.85-2.17-1.11-4.38-2.15-6.59-3.23-1.47,3.81-2.82,28.86-1.9,34.83ZM77.4,95.33a6.74,6.74,0,0,0-.67,1.55c-.47,9-.86,18-1.41,26.93-.15,2.37,1.06,3.63,2.71,4.94,6.27,5,12.46,10,18.72,15a22.49,22.49,0,0,0,3.12,1.74,32.86,32.86,0,0,0,.64-3.34c.45-7.15.76-14.3,1.33-21.44a7.06,7.06,0,0,0-2.72-6.5c-6.42-5.55-12.7-11.28-19.05-16.93C79.36,96.64,78.53,96.14,77.4,95.33Zm24.91,18c.6-9.53,1.24-18,1.54-26.38,0-1.36-1.2-3-2.28-4.11-6.52-6.63-13.15-13.14-19.78-19.65a22,22,0,0,0-3-2c-.23,1.32-.44,2.11-.49,2.91-.44,7.78-.73,15.58-1.35,23.35a7,7,0,0,0,2.71,6.47c6.39,5.55,12.64,11.26,19,16.87C99.44,111.46,100.43,112,102.31,113.29ZM84.21,394.73c-7.62-.41-14.41-1.91-21.88-1.37-.62,12.58-1.23,24.8-1.86,37.53A155.46,155.46,0,0,0,82,430.21C82.73,418.29,83.45,406.88,84.21,394.73Zm-4.82,74.59c.8-12.19,1.57-24,2.34-35.77-5.2-1.1-17.51-.64-21,.66-1.48,9.43-2.39,33.55-1.28,38ZM30.74,614.92c-.33,14.5-1.38,28.8-1.19,44.22L47.4,647.21c2-15.1,2.67-37.86,1.1-41.75ZM79,472.57c-4-.71-13.8.54-20.08,2.48C57.42,481,56.33,510,57.68,514l19.11-5C77.68,496.68,78.7,484.64,79,472.57ZM6.8,773.66c.81-.14,1.23-.08,1.43-.27,4.66-4.51,9.38-8.95,13.87-13.63a7.34,7.34,0,0,0,1.65-4.45c.52-12.46.89-24.93,1.25-37.39a46,46,0,0,0-.48-4.94c-5.13,4.16-9.42,7.81-13.89,11.2C8.26,726,7.46,728,7.44,731c-.06,9.81-.44,19.61-.63,29.42C6.72,764.79,6.8,769.19,6.8,773.66ZM73.91,549.47c1.73-9.84,2.83-34.52,1.64-37.89L56.83,516.7c-1.5,8.28-2.49,36.19-1.32,40Zm-68,276.71a35.93,35.93,0,0,0,2.88-2.57c3.55-4,7-8,10.6-12A9.69,9.69,0,0,0,22.15,805c.27-10.82.78-21.63,1.15-32.44.1-2.93,0-5.87,0-9.28a10,10,0,0,0-2.13,1c-4.35,4.13-8.78,8.18-12.9,12.53a8.05,8.05,0,0,0-1.71,4.94c-.41,13.81-.65,27.63-.92,41.45C5.63,824,5.78,824.77,5.91,826.18ZM47.54,650c-5.86,3.89-10.64,7.14-15.51,10.26a5.86,5.86,0,0,0-2.93,5.3c-.37,12.31-.94,24.6-1.39,36.9a28.36,28.36,0,0,0,.63,4.33c5.63-4.61,10.71-8.6,15.54-12.87a6.87,6.87,0,0,0,1.81-4.37c.72-11.62,1.26-23.25,1.84-34.88C47.59,653.51,47.54,652.37,47.54,650Zm4.71-49.13c6.71-3.58,12.32-6.42,17.74-9.58,1-.59,1.68-2.45,1.78-3.78.78-10.27,1.4-20.56,2-30.85a41.22,41.22,0,0,0-.26-4.48c-6.76,2.56-13,4.92-19.29,7.7C53.58,573.34,53,586.41,52.25,600.84ZM93.42,286.3c-.73,11.46-1.41,22.16-2.09,33,7.74,2.59,14.87,5.09,22.94,7.05.65-10.59,2-20.39,2.16-30.52ZM90.9,321.74c-.2,12-1.72,22.79-1.56,33.53,5.85,2.16,18,4.4,22.1,4,.76-10.06,2.19-20.15,2.25-30.55Zm30.8-92.51c.43-2.12.76-3.21.85-4.32.55-6.62.91-13.26,1.6-19.86a5.87,5.87,0,0,0-2.86-6.24c-6.07-4.06-12-8.39-17.94-12.58-.77-.54-1.65-.93-3.14-1.75-1.23,10.34-1.6,20.17-2.09,30.3C105.79,219.47,113.38,224.13,121.7,229.23Zm-4.82,63.88c.92-10.2,1.81-19.71,2.29-29.44-7.63-4-15-8.11-23.5-11.92-.72,11.22-1.38,21.56-2.06,32C101.44,287,108.55,290.45,116.88,293.11ZM105.72,430l2.67-32.35c-5.88-1.66-18-2.54-21.56-1.68-1.73,9.23-2.77,29.76-1.7,34ZM50.38,644.6c1.8-.94,3-1.43,4-2.12,3.75-2.47,7.36-5.17,11.21-7.46a7.21,7.21,0,0,0,3.73-6.49c.55-10.46,1.24-20.92,1.83-31.38a21.12,21.12,0,0,0-.48-3.45c-5.31,2.8-10,5.47-14.93,7.81-3,1.41-4,3.49-4.05,6.66-.31,10.3-.88,20.6-1.33,30.9C50.32,640.68,50.38,642.29,50.38,644.6ZM26.3,754.55l.91.45c4.62-4.51,9.16-9.09,13.89-13.48a7.5,7.5,0,0,0,2.48-5.67c.52-12.13,1.15-24.26,1.71-36.39a17,17,0,0,0-.45-2.83c-1.21.81-2,1.27-2.76,1.85-3.87,3.16-7.62,6.46-11.59,9.48a7.43,7.43,0,0,0-3.13,6.34c-.26,11.47-.7,22.93-1.06,34.4C26.24,750.65,26.3,752.6,26.3,754.55ZM88.86,358c-.79,12-1.52,23.09-2.27,34.44a160.12,160.12,0,0,0,21.92,1.9c1.16-10.86,2.15-21.21,2.47-31.87Zm35-160.15a9.55,9.55,0,0,0,1-2.09c.65-7.29,1.2-14.59,1.91-21.87.24-2.5-.91-4-2.74-5.44-6.15-4.83-12.21-9.77-18.32-14.64-.86-.68-1.81-1.24-3.44-2.35-.83,10.42-1.8,20.07-1.76,29.85Zm-28,50.69c6.81,4.45,19.52,10.69,23.24,11.52,1.3-5.46,2.69-24.22,2.09-28.14-9-6.6-19.72-12.74-23.45-13.26C97.12,228.65,96.5,238.57,95.87,248.57ZM4.81,878.9A18.29,18.29,0,0,0,7,877.07c4-5.13,8-10.2,11.74-15.49a10.77,10.77,0,0,0,1.7-5.53c.54-13.12.9-26.25,1.29-39.37a15.72,15.72,0,0,0-.36-2.62l-1-.59c-1,1.3-1.93,2.64-3,3.88-2.7,3.16-5.29,6.44-8.25,9.35s-3.73,6-3.71,9.84c0,7.14-.4,14.28-.51,21.42C4.73,864.6,4.81,871.23,4.81,878.9Zm124.3-741.43a26.28,26.28,0,0,0,.72-3.21c.58-6.12,1-12.27,1.7-18.38A7.22,7.22,0,0,0,129,109.3c-4.35-4.12-8.57-8.37-12.88-12.52-2.94-2.84-6-5.61-9.42-8.88a25.64,25.64,0,0,0-.84,3.46c-.46,7-.77,14-1.32,20.91a6.61,6.61,0,0,0,2.53,6.06c6.52,5.67,12.91,11.49,19.38,17.23A31.55,31.55,0,0,0,129.11,137.47Zm-24.42-18.23a23.94,23.94,0,0,0-.81,3.27c-.49,7.3-.81,14.61-1.44,21.9-.25,2.86.8,4.66,3,6.34,6.17,4.8,12.22,9.76,18.34,14.62.85.68,1.82,1.19,2.69,1.76.46-.58.81-.81.84-1.08.68-7.61,1.38-15.23,1.92-22.86a4.28,4.28,0,0,0-1.21-3.05C120.5,133.32,112.92,126.6,104.69,119.24ZM102.77,466c1-11.52,2.12-22.33,2.54-33.16H84.15c-1,12.13-1.92,23.77-2.12,36.09ZM450.44,265c-2.37-6.11-4.16-11.91-7.08-18.49l-27.6,46.73c2.48,4.27,4.18,8.53,7.29,12.81ZM24.51,804.9c1.75-1.6,2.76-2.38,3.6-3.32,3.44-3.84,6.74-7.81,10.27-11.55a10.93,10.93,0,0,0,3-7.63c.31-8.8.84-17.6,1.17-26.4.14-3.92,0-7.85,0-12a5.71,5.71,0,0,0-1.36.68c-4.57,4.36-9.07,8.79-13.67,13.11-1.64,1.54-1.82,3.38-1.88,5.43-.34,11.63-.77,23.25-1.15,34.88C24.46,800,24.51,802,24.51,804.9Zm75.15-302c1.19-11.57,2.19-22.73,2.81-34.52-7.33,1.14-14,1.61-20.42,3.15-1.83,9.19-2.92,32.38-1.6,36.39ZM466.39,301.43a12.62,12.62,0,0,0,1.94-1.29c8-9.09,16-18.22,24-27.28,1.56-1.74,1.55-3.47,1-5.52-1.31-4.63-2.49-9.3-3.8-13.93a32.7,32.7,0,0,0-1.68-3.73L460.5,285.62C462.53,291.05,464.36,296,466.39,301.43ZM48.6,690.14c5.83-4.78,11.13-9,16.22-13.42a6.3,6.3,0,0,0,1.58-4c.81-11.1,1.49-22.21,2.15-33.31a17.49,17.49,0,0,0-.56-3.26c-5.22,3.49-9.79,6.76-14.59,9.68-2.76,1.68-3.7,3.83-3.78,6.94-.19,7.8-.73,15.6-1,23.4C48.48,680.45,48.6,684.74,48.6,690.14ZM79,510.76c-.57,12.45-1.95,24.41-2.11,36.51,4.26-.39,15.67-4.8,19.9-7.62,1.06-11.1,2.1-22.4,2.62-34.41ZM3.9,932.22a9.12,9.12,0,0,0,1.8-1.44c3.92-5.79,7.87-11.55,11.61-17.45a9.77,9.77,0,0,0,1.29-4.68c.48-13.12.85-26.25,1.22-39.38,0-1.11-.14-2.22-.28-4.26C18,866.7,17,867.7,16.13,868.83c-3,3.94-6,8-9.09,11.88A11.28,11.28,0,0,0,4.4,888c-.17,13.46-.52,26.93-.77,40.39C3.61,929.49,3.78,930.61,3.9,932.22ZM23,854.07l1.21.38c4.51-5.92,9.08-11.8,13.45-17.82a8.25,8.25,0,0,0,1.11-4.22c.66-11.6,1.24-23.22,1.81-34.83.09-1.74,0-3.5,0-6.16-1.53,1.46-2.4,2.17-3.14,3-3.52,4-6.9,8.09-10.54,12a10.58,10.58,0,0,0-3,7.56c-.25,11.95-.77,23.9-1.14,35.85C22.7,851.22,22.92,852.65,23,854.07ZM76.49,550.91c-.73,12.58-2.12,24.87-2.1,38.07,3.9-2,7-3.6,10-5.22s6.1-3.29,8.87-4.79c1.72-11,3.16-31.73,2.37-35.63ZM46.19,736.36c5.91-5.68,11-10.43,15.87-15.39a6.79,6.79,0,0,0,1.45-4C64.31,706,65,695,65.65,684.06c.07-1.24-.12-2.49-.23-4.69-5.91,4.86-11.21,9.08-16.31,13.55a6.15,6.15,0,0,0-1.51,4c-.69,11.78-1.24,23.58-1.81,35.37A39.15,39.15,0,0,0,46.19,736.36ZM71.31,630.78A219.31,219.31,0,0,0,90.45,618c.92-11.71,1.85-23.41,2.79-35.29-4.2.94-15.84,7-19.53,10.12C72.94,605,72.15,617.38,71.31,630.78Zm67.76-294.1-22.86-7.12c-.87,10.76-1.69,20.74-2.52,31,7.62,1.83,14.8,3.45,22.59,4.55C137.23,355.4,138.12,346.38,139.07,336.68Zm-6.82,60.25c1.76-4.85,3.6-25.8,2.61-29.61l-21.36-4.27c-.91,10.88-1.75,21.06-2.65,31.86ZM18.2,917.69c-1,.7-1.46.88-1.7,1.23-3.91,5.79-7.91,11.53-11.61,17.46A11.69,11.69,0,0,0,3.42,942c-.39,13.81-.64,27.62-.89,41.43A30.17,30.17,0,0,0,3,987.15a20.58,20.58,0,0,0,1.67-2c3.58-6,7.22-12,10.61-18.09a13.29,13.29,0,0,0,1.52-5.64c.56-12.8,1-25.61,1.4-38.41C18.24,921.4,18.2,919.82,18.2,917.69ZM118.84,296.87c-.85,10.55-1.63,20.22-2.38,29.66,5.87,3.11,19.11,6.91,22.92,6.56.75-8.79,2.36-17.57,2.44-26.78Zm25.89-20.09-23-11.88c-1.17,10.23-2.16,19.72-2.36,29.06,5.7,3.51,19.53,8.89,23.16,8.94.74-7.21,1.5-14.47,2.21-21.73C144.84,279.87,144.73,278.55,144.73,276.78ZM126,462.68c2.06-10.12,3.49-27.83,2.51-31.14l-20.69.75c-.52,11.26-2.52,21.94-2.11,33.27ZM43.87,783c1.54-1.42,2.55-2.2,3.39-3.14,3.65-4.1,7.17-8.32,10.9-12.34a9.9,9.9,0,0,0,2.62-6.73c.4-8,1.06-15.92,1.58-23.88.25-3.93.39-7.86.59-12.14-1.14.42-1.71.46-2,.76C56.24,730,51.53,734.43,47,739.07a6.65,6.65,0,0,0-1.51,4c-.7,11.62-1.27,23.24-1.84,34.87C43.58,779.31,43.76,780.72,43.87,783ZM150.78,220.39c-6.49-5.87-20.63-15.45-24.38-16.42-.7,8.95-1.4,17.81-2.1,26.72,7.82,5.07,15.36,9.71,23.69,14.58C149.54,236.49,149.94,228.46,150.78,220.39Zm-26.73,13c-.84,10.39-1.58,19.58-2.29,28.48,6.9,4.59,19.64,10.79,23.68,11.44.85-8.4,1.69-16.76,2.54-25.23ZM110.7,397.16c-.91,11.22-2.06,21.55-2.37,31.85,5.48,1.16,17.49.79,21.58-.65.91-9.35,1.83-18.9,2.82-29.1Zm-21,225.29a9.52,9.52,0,0,0-2.26.63c-4.87,3.2-9.69,6.47-14.55,9.67-1.77,1.16-2.07,2.86-2.18,4.75-.64,10.63-1.33,21.26-2,31.89a23.39,23.39,0,0,0,.32,3.25,15.61,15.61,0,0,0,2.48-1.33c4.52-3.67,9-7.44,13.52-11,1.78-1.41,2.2-3.22,2.36-5.25.75-9.46,1.52-18.91,2.25-28.37C89.83,625.36,89.75,624.07,89.75,622.45ZM21.51,906.57c1.35-1.73,2.18-2.69,2.89-3.73,3.26-4.82,6.39-9.73,9.75-14.47a13.08,13.08,0,0,0,2.42-7.4c.46-12.28,1.1-24.57,1.62-36.85a16.54,16.54,0,0,0-.69-3.26c-5,6.49-9.48,12.21-13.73,18.13a10,10,0,0,0-1.38,5.14c-.54,12.61-.94,25.23-1.35,37.85A41.35,41.35,0,0,0,21.51,906.57Zm129-689.76a11.56,11.56,0,0,0,.9-2.15c.72-6.62,1.36-13.25,2.11-19.87.25-2.18-.94-3.35-2.44-4.54-6.39-5.08-12.73-10.23-19.12-15.31a20.28,20.28,0,0,0-3-1.5c-.73,9.18-1.41,17.76-2.11,26.58ZM123.13,496.56c.55-10.78,2.65-20.8,2.48-31.44-7.31.94-14,1.54-20.72,3.16-.92,11.25-2,22.06-2.57,33.74Zm30.31-307.34c.5-2.15.92-3.39,1.06-4.66.55-5.28.88-10.59,1.57-15.85a5.73,5.73,0,0,0-2.22-5.62c-6.5-5.67-12.89-11.49-19.35-17.21a16,16,0,0,0-2.37-1.48c-.34.48-.68.74-.7,1-.7,7.44-1.43,14.87-1.94,22.31a4.63,4.63,0,0,0,1.51,3.4C138.15,177,145.42,182.79,153.44,189.22Zm-19.66-74.13c-.72,8.24-1.5,15.8-1.95,23.38-.08,1.2,1,2.77,2.06,3.69,6.5,6,13.12,11.79,19.72,17.63a18.84,18.84,0,0,0,2.5,1.6,6,6,0,0,0,.74-1.55c.66-6.12,1.25-12.25,1.94-18.37.24-2.07-.73-3.46-2.1-4.79-6.56-6.38-13.08-12.81-19.64-19.18A32.19,32.19,0,0,0,133.78,115.09ZM65.93,715.6l1,.45c1.22-1.07,2.47-2.09,3.64-3.21,3-2.87,5.8-6,9-8.64a13.56,13.56,0,0,0,4.93-10.34c.49-8.78,1.38-17.54,2.06-26.31.11-1.44,0-2.89,0-4.75a14,14,0,0,0-2.14,1.09c-4.64,3.76-9.22,7.6-13.9,11.32a5.87,5.87,0,0,0-2.26,4.7c-.47,7.46-1.07,14.91-1.56,22.36C66.33,706.71,66.16,711.16,65.93,715.6ZM41.77,830.07c.62-.22,1-.23,1.21-.44,4.46-5.77,9-11.53,13.3-17.4a8.21,8.21,0,0,0,1.38-4.14c.79-11.09,1.47-22.19,2.14-33.3a37.2,37.2,0,0,0-.29-4.43,9.77,9.77,0,0,0-1.77,1.09c-4.3,4.84-8.68,9.62-12.79,14.61A8.92,8.92,0,0,0,43.14,791c-.7,11.93-1.21,23.87-1.74,35.82A19.87,19.87,0,0,0,41.77,830.07Zm80.72-331-20.58,5.46c-.7,11.41-2.3,22.5-2.42,34.49a187.9,187.9,0,0,0,19.9-7.89C120.49,520.58,121.92,510.29,122.49,499.12Zm-4.32,35.28-19.31,7.67c-.79,11.89-2.44,23.17-2.45,35.07,1.72-.77,2.79-1.19,3.8-1.72,5.13-2.73,10.24-5.49,15.09-8.09C116.88,561.56,118.93,538.44,118.17,534.4ZM35.4,891.74a8.33,8.33,0,0,0-1.67,1.33c-4,5.93-8,11.85-11.87,17.87a8.62,8.62,0,0,0-1.25,4.21c-.49,13.13-.87,26.26-1.24,39.39a33.71,33.71,0,0,0,.49,4.11c1.31-1.88,2.22-3,3-4.24,3.06-5.15,6-10.37,9.14-15.47a13.39,13.39,0,0,0,2-6.55c.42-8.64,1-17.26,1.42-25.9C35.57,901.71,35.4,896.92,35.4,891.74ZM451.87,269l-1.25-.05-26.56,39.85,6.63,12.15,27.24-35.76ZM63.21,759.85l1,.62c5.1-5.83,10.24-11.61,15.23-17.53a7.06,7.06,0,0,0,1.12-3.72c.93-10.76,1.79-21.53,2.64-32.3a15.81,15.81,0,0,0-.48-2.86c-5.29,5.18-9.95,9.87-14.77,14.39a8.45,8.45,0,0,0-2.72,6.13c-.61,10.62-1.36,21.23-2,31.85C63.15,757.57,63.21,758.71,63.21,759.85ZM93.76,615.68c1.07-.58,2.09-1,3-1.63,4-2.66,8-5.49,12.06-8a7.58,7.58,0,0,0,3.88-6.46c.47-6.3,1.24-12.58,1.85-18.88.31-3.23.54-6.48.88-10.67-3.89,2-7,3.61-10,5.23-3.21,1.71-6.4,3.46-9.32,5C94.41,589.5,92.9,611.58,93.76,615.68ZM57,817.27l-.93-.38c-.94,1.1-1.93,2.16-2.81,3.31-3,3.94-5.91,8-9.1,11.84a15.43,15.43,0,0,0-3.63,10c-.39,11.61-1.09,23.2-1.63,34.81a10.17,10.17,0,0,0,.36,2.15l1.12.66a20.48,20.48,0,0,1,1.12-2.19C45.29,871.65,49.23,865.9,53,860a11.45,11.45,0,0,0,1.67-5.08c.87-11.75,1.57-23.51,2.31-35.27C57,818.86,57,818.06,57,817.27Zm438.38-542.5-1.26-.39-26.53,30.2,5.75,15.4,27.13-26.42C498.69,287.19,497,281,495.33,274.77ZM132.05,429.2a159.38,159.38,0,0,0,21.94-.62c.76-9.25,2.9-17.91,2.67-27.12l-21.62-2C134,409.57,133.07,419.07,132.05,429.2ZM89.68,654.84l1.29.6c5.48-4.51,11-8.94,16.38-13.61.94-.83,1.2-2.67,1.36-4.09,1-8.6,1.83-17.2,2.68-25.81.12-1.28,0-2.59,0-4-3.57,1.12-15.07,8.69-19,12.49C91.54,631.72,90.61,643.28,89.68,654.84ZM144.51,305l23.36,9.64c1-8.59,2-16.37,3-24.39l-23.58-12.12C146.31,287.55,145.44,296.05,144.51,305Zm-3.19,32.34c-1,9.9-1.94,18.92-2.9,28.35l22.35,4.64A239.43,239.43,0,0,0,164,344.42Zm-3.15,30.74c-1,9.91-1.9,19.21-2.89,29.13l22.12,2c1.34-9.14,2.48-17.72,3.15-26.65Zm6.13-60.58c-1,9.59-1.84,18.4-2.71,27,7.28,3.4,19.28,6.77,23,6.41.95-7.75,1.92-15.6,2.92-23.77C160,313.71,152.52,310.66,144.3,307.5Zm29.57-43.05c-8.21-6.23-20.13-13.12-23.84-13.71-.83,8.22-1.66,16.41-2.51,24.86l23.42,12.08C172.46,279.5,173.09,272,173.87,264.45Zm-20.37,167a166.14,166.14,0,0,0-21.67.39c-1.05,10.16-2.43,19.95-2.82,30.48,7.41-1.24,14.29-1.71,21.27-3.46C151.35,449.65,152.39,440.81,153.5,431.41Zm-25,33.18c-.89,10.52-2.55,20.45-2.82,31.27l20.77-5.61c.87-9.7,2.79-18.76,3.09-28.58Zm48.65-225.66c-10.29-8.51-20.56-15.35-24-16.06-1.44,6.77-2.61,20.56-2,24.44,3.67,2.26,7.44,4.7,11.33,6.95s7.23,5.16,12,6.67C175.37,253.33,176.26,246.11,177.13,238.93ZM60.26,804.86l1.19.29c.86-1,1.78-1.88,2.56-2.9,3.55-4.62,7-9.33,10.63-13.89A11,11,0,0,0,77.06,782c.78-10.29,1.7-20.57,2.52-30.86a28.24,28.24,0,0,0-.27-3.83c-1.33,1.29-2.2,2-2.94,2.86-3.76,4.23-7.41,8.57-11.26,12.72a10.65,10.65,0,0,0-2.79,7.2c-.38,7.65-1,15.28-1.51,22.92C60.56,797,60.44,800.91,60.26,804.86Zm93-586.46c7.51,6.33,20.48,15.2,24.34,16.57.73-6,1.37-11.89,2.21-17.76a5.75,5.75,0,0,0-2.55-6c-6.16-4.78-12.17-9.75-18.28-14.6a27.46,27.46,0,0,0-3.31-1.87C154.84,203,154.06,210.75,153.28,218.4ZM53.47,864.15c-1.41,1.8-2.37,2.89-3.17,4.07-3.17,4.7-6.2,9.49-9.48,14.1a14.07,14.07,0,0,0-2.61,7.89c-.51,11.81-1.14,23.62-1.67,35.43a26.77,26.77,0,0,0,.49,3.87c1.11-1.49,1.75-2.22,2.24-3C42.68,920.75,46,915,49.48,909.3a15.65,15.65,0,0,0,2.26-7.53c.48-8.82,1.2-17.61,1.7-26.42C53.63,871.93,53.47,868.49,53.47,864.15Zm72.24-365.92c-1.62,5.37-3.64,27.44-2.89,31.85l19.65-7.84c1.17-9.9,2.59-19.18,3.33-29.34ZM107.49,645.35c-1.49,1-2.48,1.55-3.35,2.26-3.88,3.14-7.62,6.47-11.61,9.45a8.94,8.94,0,0,0-3.72,7.17c-.62,8.95-1.45,17.9-2.16,26.85-.12,1.58,0,3.17,0,5.5,1.27-1,1.94-1.41,2.5-2,4.3-4.16,8.54-8.39,12.89-12.51a9,9,0,0,0,2.91-6.09c.75-8.28,1.72-16.54,2.53-24.82C107.63,649.47,107.49,647.71,107.49,645.35Zm75.67-455.5c-5-5.63-21.08-19.61-24.26-21.15a4.16,4.16,0,0,0-.66,1.29c-.68,6.28-1.27,12.58-2,18.86-.23,2.13.86,3.39,2.38,4.59,6.39,5.06,12.74,10.18,19.13,15.25a22.63,22.63,0,0,0,2.85,1.57C181.53,203,182.37,196.27,183.16,189.85Zm-24.47-25.48,24.39,21.7c.53-2.06,1-3.26,1.15-4.5.56-4.12.94-8.26,1.54-12.38a6.5,6.5,0,0,0-2.22-6.19c-6.49-6.2-12.8-12.59-19.22-18.87a25.2,25.2,0,0,0-3.3-2.23C160.2,149.84,159.45,157,158.69,164.37Zm-40.31,400,1.07.88c5.82-3.11,11.71-6.1,17.41-9.41,1-.6,1.69-2.4,1.9-3.74.79-5.08,1.33-10.21,1.93-15.32.42-3.56.78-7.13,1.27-11.72l-20.36,8C120.51,543.62,119.44,554,118.38,564.32ZM76.19,791.21a15.45,15.45,0,0,0-2.13,1.69c-4.37,5.67-8.79,11.31-13,17.1a9.22,9.22,0,0,0-1.48,4.61c-.83,11.13-1.52,22.27-2.23,33.41-.07,1.22,0,2.45,0,3.68a7.72,7.72,0,0,0,3.11-2.82c3.35-5,6.55-10,10-14.93a17.84,17.84,0,0,0,3.23-9.76c.4-6.65,1.09-13.28,1.6-19.92C75.64,800.19,75.87,796.1,76.19,791.21Zm7.09-53.8c.85-.24,1.25-.23,1.42-.42,4.88-5.47,9.77-10.92,14.53-16.48a6.86,6.86,0,0,0,1.47-3.58c1.07-9.6,2-19.21,3-28.82a23.48,23.48,0,0,0-.41-4c-5.89,5.74-11.2,10.74-16.25,16-1,1-1.26,3-1.4,4.61-.85,9.46-1.58,18.92-2.32,28.38C83.19,734.4,83.28,735.71,83.28,737.41Zm31.5-137,1.13.7c5.62-3.78,11.32-7.45,16.79-11.44,1.12-.81,1.76-2.75,2-4.26,1-7.24,1.91-14.5,2.76-21.76a51.39,51.39,0,0,0,0-5.5L118,568.59C116.88,579.4,115.83,589.93,114.78,600.45Zm-3.42,37.8c1.4-.93,2.37-1.47,3.22-2.16,4.13-3.34,8.18-6.8,12.38-10.06a9,9,0,0,0,3.69-6.67c.81-7.77,1.9-15.51,2.82-23.26a25.73,25.73,0,0,0-.25-3.79c-5.39,3.61-10.1,7-15,10a8.5,8.5,0,0,0-4.46,7.17c-.67,8.28-1.57,16.54-2.35,24.82C111.27,635.39,111.36,636.51,111.36,638.25ZM79.51,780.54a12.46,12.46,0,0,0,2.07-1.48c4.57-5.93,9.16-11.84,13.6-17.87a8.87,8.87,0,0,0,1.48-4.11c1.08-9.59,2-19.19,3-28.79a23,23,0,0,0-.22-3.52,8.46,8.46,0,0,0-1.59,1C93.2,731,88.52,736.17,84,741.53a8.92,8.92,0,0,0-1.7,4.49c-.67,5.78-1.14,11.59-1.61,17.39C80.29,768.85,80,774.3,79.51,780.54ZM394.75,348.41l26.62-39.81c-2.34-4.34-4.42-8.22-7-13l-26.76,45.33c1.94,2.27,3.53,4.17,5.18,6A15.69,15.69,0,0,0,394.75,348.41ZM54.52,898.59l.86.18a24,24,0,0,0,1.4-1.95c3.73-6.29,7.54-12.53,11.09-18.91a15.9,15.9,0,0,0,1.79-6.08c.89-9.26,1.57-18.54,2.32-27.81.18-2.28.32-4.55.55-7.73a19.1,19.1,0,0,0-2.32,2.23c-4.1,6.06-8.24,12.08-12.16,18.25a11.4,11.4,0,0,0-1.53,5.13c-.76,9.77-1.38,19.55-2,29.33C54.39,893.68,54.52,896.14,54.52,898.59ZM185.63,377.8c-7.81-1.68-14.91-3.61-22.77-4.29-.68,8.83-2.53,17.05-2.7,25.42,6.68,1.6,18.76,2.48,22.16,1.57C183.38,393.26,184.45,385.89,185.63,377.8Zm-7.87,53.25H156.64c-1.95,5.56-4,24-3,27.69l20.57-3C175.41,447.24,176.57,439.26,177.76,431.05Zm-11-85.82a226.88,226.88,0,0,0-3.24,25.59l22.4,4.54c1.25-7.9,2.67-15.29,3.28-23.12ZM431.8,323.29c2.09,3.87,3.95,7.3,6.19,11.43l26.67-30.39c-2.14-8.17-4.2-13-6.61-15.52ZM189.57,349.85c1.52-7.77,2.41-14.93,3.37-22.31L169.81,318c-1.08,8.62-2.07,16.47-3.11,24.76C174.25,345.32,181.63,347.55,189.57,349.85Zm-7.75,53.87-22.33-1.93c-1,9.19-2.67,17.72-2.85,26.5h21.5C179.35,420.19,180.52,412.39,181.82,403.72Zm292.41-81.4c1.84,4.88,2.9,9.66,5.67,14.3l25.92-21.3c-.79-6.75-3.21-14.74-5.59-18.29Zm-277.7-18.13c-5-3.82-19.95-11.22-23.54-11.64-1,7.64-2.5,15.23-2.65,23.16l23,9.43C194.48,317.56,195.52,310.76,196.53,304.19Zm-20.05-38.6a178.7,178.7,0,0,0-2.85,23.46c4.08,2.13,7.72,4.15,11.46,5.95s7.32,4.36,12,5.56c.8-7.26,2.29-13.87,2.62-20.67Zm-47,362.81-1.06-.57c-4.87,4-9.65,8-14.62,11.83A9.2,9.2,0,0,0,110,646.8c-.67,8.11-1.63,16.19-2.41,24.28-.14,1.44,0,2.9,0,5.49,3.43-3.31,6.15-5.89,8.81-8.53,3.06-3,7-5.65,8.82-9.31s1.61-8.38,2.16-12.66C128.12,640.19,128.76,634.29,129.44,628.4Zm22.7-167.15-3.35,28.46,21.28-5.79,3.61-25.79ZM179.3,240.11c-1,8.2-1.92,15.34-2.77,22.19,5.68,4.8,20.36,13.4,24,14l2.91-19.05ZM95.77,765.89c-1.19.58-1.58.64-1.76.87-4.66,6-9.33,12.09-13.89,18.22a7.46,7.46,0,0,0-1.39,3.62c-.91,10.76-1.71,21.52-2.5,32.29a15.92,15.92,0,0,0,.66,3.26c4.76-7,9-13.39,13.32-19.65a14.59,14.59,0,0,0,2.55-7.41c.44-5.46,1.11-10.9,1.65-16.35C94.88,776,95.28,771.22,95.77,765.89Zm110.86-530.6c-6.79-6.49-20.49-17.14-24.41-18.85-.88,7-1.73,13.85-2.55,20.43,4.53,4.5,20.52,15.46,24.28,16.52Zm.4-3c1-6.54,1.93-11.88,2.47-17.25a5.38,5.38,0,0,0-1.83-3.75c-6.6-6.07-13.31-12-20-17.94a9.82,9.82,0,0,0-2.52-1c-.86,7-1.65,13.56-2.48,20.35ZM165.71,513.08c1.27-8.74,2.48-17,3.69-25.38-4.05-.3-14.84,2.31-20.92,5-1.28,9-2.62,18.28-3.47,28.58ZM103.4,714.22c1.18-.38,1.59-.38,1.77-.58,5-5.58,10-11.13,14.82-16.82a8.18,8.18,0,0,0,1.57-4.05c1.11-8.23,2.09-16.47,3.06-24.72.14-1.22,0-2.47,0-4.75-6.08,5.89-11.49,11-16.7,16.29a7.48,7.48,0,0,0-1.49,4c-.67,5.1-1.2,10.22-1.71,15.34C104.25,703.9,103.87,708.84,103.4,714.22Zm41.54-190.44c-2.34,9.61-3.79,25.78-2.6,29.22,5.74-3,11.49-6,17.08-9.14a5.54,5.54,0,0,0,2.2-3.55c1.16-6.69,2.1-13.43,3.06-20.16a36.74,36.74,0,0,0,0-4.17Zm65.52-314.61c.77-5.16,1.47-10.07,2.25-15,.34-2.1-.79-3.42-2.14-4.74-6.65-6.48-13.28-13-19.94-19.49a17.57,17.57,0,0,0-2.51-1.55c-.84,6.55-1.68,12.41-2.28,18.3a4.23,4.23,0,0,0,1.36,3c7.14,6.45,14.36,12.81,21.58,19.17C209,209.06,209.4,209,210.46,209.17ZM140.87,556.39c-2.53,11.93-3.88,26-2.81,29.86,5-3.38,9.88-6.83,14.93-9.94a8.86,8.86,0,0,0,4.56-7.13c.77-6.59,1.9-13.13,2.81-19.71a18.19,18.19,0,0,0-.23-3.29ZM91.14,808.22A14.23,14.23,0,0,0,89.23,810c-4.27,6.35-8.56,12.67-12.68,19.11a10.84,10.84,0,0,0-1.37,4.68c-.93,9.93-1.75,19.86-2.57,29.8-.11,1.42,0,2.85,0,4.27l1.28.84a11.92,11.92,0,0,1,.69-1.93c4-6.88,8.19-13.69,12.08-20.65A16.48,16.48,0,0,0,88.42,840c1-9.26,1.84-18.53,2.71-27.8C91.23,811.1,91.14,810,91.14,808.22Zm8.29-54.66,1,.4c.64-.7,1.35-1.35,1.92-2.1,4.05-5.28,8-10.62,12.12-15.85a11.83,11.83,0,0,0,2.62-6.32c.56-5.29,1.22-10.57,1.85-15.85.48-4.09,1-8.18,1.5-12.6-.88.36-1.43.43-1.7.73-5,5.59-10,11.15-14.81,16.86a8.05,8.05,0,0,0-1.51,4.07c-.71,5.61-1.25,11.23-1.8,16.86C100.2,744.35,99.83,749,99.43,753.56Zm33.44-133.84c.74,0,1.16.19,1.35,0,5.56-4.46,11.15-8.9,16.59-13.5a6,6,0,0,0,1.67-3.47c1.15-7.21,2.17-14.45,3.19-21.68a23,23,0,0,0,0-3,6,6,0,0,0-1.72.33c-5.26,3.49-10.47,7.05-15.75,10.5-1.61,1-2,2.53-2.19,4.22-.6,5.11-1.22,10.22-1.83,15.33Q133.53,614.09,132.87,619.72Zm77.72-237-22.71-4.61c-1.12,8.14-2.62,15.53-3.27,23.6l22.22,2C208.11,396.6,209.29,390,210.59,382.74Zm-30.13,45.6,22.13-.84c1.44-7.39,2.84-14.16,3.68-21.57L184.11,404C182.89,412.16,181.74,419.8,180.46,428.34ZM511.79,335.1c-1.81-6.05-2.86-11.53-5.12-17.44-9.17,7.52-17.7,14.51-26.29,21.57l5.11,13.57ZM211,380.49c1.2-7.08,2.3-13.53,3.47-20.41l-22.66-7c-1.76,7.73-2.45,15.06-3.53,22.78Zm-82.5,274.34c1.08-.31,1.49-.3,1.69-.5,5.28-5.06,10.59-10.1,15.76-15.27a6.72,6.72,0,0,0,1.63-3.51c1.21-7.55,2.31-15.12,3.37-22.69a13.72,13.72,0,0,0-.5-3.17c-3.87,3.15-7,6.19-10.57,8.51-5.9,3.81-8.91,8.69-9.07,15.93C130.7,640.88,129.39,647.61,128.54,654.83Zm66.9-326.19c-1.55,7.64-2.61,14.58-3.39,22.09l23,7.09c1.2-7,2.29-13.23,3.41-19.72Zm-80,410.81a18.58,18.58,0,0,0-2.16,2c-4.45,5.79-8.92,11.57-13.25,17.45A8.93,8.93,0,0,0,98.45,763c-1.08,9.73-2,19.48-3,29.23a18,18,0,0,0,.54,3.49c4.71-7.05,8.74-13.31,13-19.39a20.06,20.06,0,0,0,3.58-9.63c.84-7.58,1.88-15.15,2.78-22.72A43.63,43.63,0,0,0,115.41,739.45ZM195.53,326c7.88,3.5,15.28,6.58,23.33,9.66,1-6.78,2.91-12.74,3-19.15l-23.1-11.83C197.61,312.18,196.61,318.82,195.53,326Zm6.37,104.2c-7.53-.13-14.52-.26-21.83.67-1.19,8.18-2.32,16-3.56,24.51l21.56-3.05A192.52,192.52,0,0,0,201.9,430.21Zm-29.56,53.22,21.5-5.82c1.19-7.58,3.1-14.72,3.61-22.79l-21.25,2.91C174.93,466.17,173.71,474.29,172.34,483.43Zm50.13-169.27a170.67,170.67,0,0,0,3.25-17.8c-6.38-5-19.93-13-23.75-13.84-.94,6.51-1.88,13-2.83,19.6C206.94,306.35,214.35,310.23,222.47,314.16Zm222.41,33.57,26.62-26c-2-5-3.2-9.74-6.07-14.74l-26.3,30ZM202.55,278.28c5.56,4.61,19.87,13.1,23.9,14.16,1-5.51,2-11,3.08-16.68l-24-17.05C204.43,265.9,203.49,272.06,202.55,278.28ZM168.48,511.17a7.34,7.34,0,0,0,1.9,0c5.59-2.16,11.15-4.37,16.75-6.51,1.82-.7,2.38-2.1,2.67-3.85.93-5.58,2-11.14,2.87-16.73a18.62,18.62,0,0,0-.2-3.64l-20.31,5.39C170.59,494.31,169.38,502.61,168.48,511.17ZM422.53,311,396,350.74l6.55,7.16L429.08,323Zm-189.64-54.5c-5.37-5.42-20.51-17.24-24.24-18.86-.94,6.13-1.87,12.14-2.75,17.9,4.36,4.24,20.51,15.37,24.21,16.61C231,266.89,232,261.72,232.89,256.47ZM164,540.17l1.2.68q8.78-4.65,17.55-9.28c1.71-.9,2-2.5,2.3-4.17,1-5.74,2.05-11.46,3-17.2a25.7,25.7,0,0,0,0-3.5l-20.37,8.07ZM124.39,690.94a11.06,11.06,0,0,0,1.81-1.18c4.87-5.47,9.8-10.88,14.51-16.48a10.52,10.52,0,0,0,2.07-4.91C144,661,145,653.57,146,646.15a20.23,20.23,0,0,0-.25-3.41c-3.84,3.68-7.07,6.74-10.25,9.84-2.26,2.21-4.56,4.38-6.62,6.77a7.21,7.21,0,0,0-1.36,3.61c-1,7.58-2,15.17-2.88,22.76C124.47,687.28,124.49,688.87,124.39,690.94ZM209.2,233.33c5.66,6,20.9,17.72,24.43,18.76.89-5.06,1.78-10.08,2.63-14.81-5-5.7-20.93-19.53-24.48-21.21C210.89,222,210,227.88,209.2,233.33Zm-118.29,603,.91.4A10.11,10.11,0,0,0,93,835.32c4.34-7.29,8.68-14.58,13-21.92a10.32,10.32,0,0,0,1.28-3.74c1.19-9.24,2.29-18.49,3.38-27.74a12.05,12.05,0,0,0-.25-2.3,8.14,8.14,0,0,0-1.75,1.34q-6.58,9.7-13,19.5a7.62,7.62,0,0,0-1.18,3.21C93.19,814.56,92.06,825.45,90.91,836.34Zm146-602.24c.81-4.63,1.18-8.08,2.06-11.39s.06-5.61-2.43-7.93c-6.32-5.88-12.41-12-18.63-18A19.25,19.25,0,0,0,215,195c-.77,4.8-1.34,9-2.14,13.22a6.08,6.08,0,0,0,2.23,6.57c4.34,3.6,8.46,7.48,12.67,11.24ZM160.34,570.92a27.92,27.92,0,0,0,2.53-1.35c4.56-3,9-6.2,13.67-9.09a7.92,7.92,0,0,0,3.81-6c.91-5.72,2-11.42,3-17.14a16,16,0,0,0-.27-3.3c-6.33,3.36-12.19,6.4-17.95,9.6a4.26,4.26,0,0,0-1.92,2.65c-1.25,7.85-2.33,15.73-3.44,23.6C159.72,570.12,160.05,570.42,160.34,570.92Zm-19,107.15-1-.42a20.52,20.52,0,0,0-1.76,1.59c-4.52,5.11-9.1,10.18-13.45,15.43a10.24,10.24,0,0,0-2,4.89c-1,7.08-1.83,14.19-2.7,21.29-.27,2.21-.48,4.42-.72,6.63a8,8,0,0,0,3.31-2.67c3.14-4.09,6.07-8.35,9.41-12.28a24.18,24.18,0,0,0,6.05-13.83C139.11,691.8,140.37,685,141.36,678.07Zm37.39-114.78-1.09-.83c-5.9,4-11.85,7.85-17.64,12-.9.64-1.35,2.24-1.55,3.47-1.12,7.06-2.13,14.14-3.11,21.22a18.75,18.75,0,0,0,.25,3.34c6.32-5.19,12.09-9.9,17.8-14.67a3.83,3.83,0,0,0,1.25-2C176.07,578.26,177.4,570.77,178.75,563.29Zm47.47-133.71a149.61,149.61,0,0,0-21.18.59c-2,5.69-3.82,17.84-3.24,21.64,7-1,14-1.58,21-3.34,1.19-5.74,2.31-11.1,3.39-16.48A15.12,15.12,0,0,0,226.22,429.58Zm13.46-60.91c-4.76-2.7-18.93-6.9-22.57-6.84-1.81,5.08-3.47,15.36-3,19.32,7.12,1.25,14.22,3.39,22.07,4C237.39,379.53,238.51,374.21,239.68,368.67ZM150.75,633.91a18,18,0,0,0,2.23-1.53c4.91-4.73,9.87-9.4,14.6-14.3a9.92,9.92,0,0,0,2.28-4.78c1.19-6,2.13-12.1,3.13-18.17.17-1,.16-2.08.31-4.18-6.54,5.37-12.35,10-18,14.89-1,.85-1.39,2.61-1.62,4-1.07,6.56-2,13.13-2.93,19.72A33.82,33.82,0,0,0,150.75,633.91Zm62.06-250.74c-1.26,7.24-2.38,13.69-3.6,20.75,7.76.73,14.89,1.78,22.42,1.83,1.56-6.06,2.86-11.76,3.83-18ZM491,367.81l25.33-13.41c-.49-5.76-2.63-12.9-4.85-16.15-8.45,5.47-16.91,10.92-25.16,17ZM205.65,427.53c7.33-.12,14.5.23,21.62-.66,1.33-6.36,3-12,3.63-18.5-7.51-.86-14.63-1.83-22.14-1.81-1.09,6-2.13,11.48-3.08,17A26.38,26.38,0,0,0,205.65,427.53Zm11.51-69.06,23,7.21c1.4-6,2.88-11.32,3.39-17.14l-22.91-9.48C219.46,345.76,218.36,351.86,217.16,358.47Zm27.25-12.1c1.26-6.08,2.3-11.07,3.41-16.39l-23.33-12c-1.33,6.66-2.7,12.54-3.15,18.89Zm4-18.7c1.24-5.84,2.3-10.79,3.28-15.43-7.85-6.08-20.3-13.22-23.86-13.64-1,5.49-1.95,11-3,16.87ZM200.19,454.39c-1.13,7.46-2.87,14.46-3.58,22.5l20.61-5.46c2.32-5.43,4.36-16.06,3.75-20.06ZM168.4,621.46A19,19,0,0,0,166,623c-4.92,4.73-9.77,9.55-14.75,14.22-1.76,1.64-2.12,3.69-2.45,5.83q-1.41,9.38-2.76,18.77c-.2,1.38-.23,2.79-.43,5.38a89.74,89.74,0,0,0,8.9-9.54c10-11.28,9.92-11.3,12.2-26.25C167.18,628.34,167.74,625.31,168.4,621.46ZM471.73,324.8l-25.49,24.85c1.53,3.75,2.79,7.09,5.76,9.88,8.59-7.31,17.48-13.89,25.57-21.39-1.57-4.17-3-7.9-4.41-11.61C473,326.1,472.55,325.78,471.73,324.8ZM228.52,294.35c5.95,4.72,20,13,23.69,14,.42-1.55.92-3.1,1.26-4.68.65-3.06,1.22-6.14,1.77-9-4-4-20-15.07-23.83-16.39C230.44,283.67,229.48,289,228.52,294.35ZM217.38,473.72l-21.49,5.78c-.79,4.16-1.51,7.73-2.13,11.32s-1.16,7.33-1.86,11.84c7.08-2.79,13.26-5.16,19.36-7.71a4.13,4.13,0,0,0,2.12-2.51C214.74,486.65,215.89,480.81,217.38,473.72Zm-107,329.66,1,.39c.73-1.06,1.52-2.09,2.18-3.19,3.49-5.87,6.83-11.83,10.45-17.62a23.17,23.17,0,0,0,3.35-9.29c.64-4.62,1.4-9.22,2-13.84.45-3.23.78-6.48,1.25-10.53a14,14,0,0,0-2.12,1.81c-4.47,6.64-8.95,13.26-13.28,20a12,12,0,0,0-1.62,4.63c-.75,4.94-1.32,9.91-1.9,14.87C111.27,794.84,110.84,799.11,110.39,803.38ZM232.07,274.23c7.64,6.73,20.67,15.44,24.21,16.15.93-4.49,1.87-9,2.78-13.33-8-6.56-15.55-12.72-24.07-19.3C233.89,263.94,233,269.09,232.07,274.23Zm30.5-13.31c-4.39-5.4-20.87-19.65-24.49-21-.87,5.1-1.73,10.11-2.53,14.79,6.8,6.63,20.6,17.23,24.26,18.58C260.75,269,261.68,264.86,262.57,260.92ZM410,366.61l26.27-29.94C434,333,433.14,329.12,429.7,326,421.05,337.48,412.36,348.48,404,360ZM187.36,527.74l1.08.79c6-3.19,12-6.28,17.9-9.64a6,6,0,0,0,2.22-3.6c1.16-4.67,2.11-9.4,3-14.12a22.35,22.35,0,0,0,0-3.82l-20.43,8.14Zm-.72,4.33c-1.57,7.81-3,15.36-4,23.11,1,0,1.36.06,1.59-.1,5.67-3.74,11.38-7.46,17-11.35a5.77,5.77,0,0,0,2.07-3.21c1.29-5.66,2.39-11.37,3.49-17.07.07-.37-.36-.84-.71-1.61ZM162.72,653.7l-.86-.5a11.41,11.41,0,0,0-1.45,1.22c-4.74,5.36-9.56,10.66-14.12,16.16a11.8,11.8,0,0,0-2.27,5.35c-1,5.89-1.77,11.84-2.61,17.76-.29,2.06-.52,4.12-.77,6.17a10.75,10.75,0,0,0,3.92-3.35c3.25-4.22,6.32-8.58,9.74-12.66a22.91,22.91,0,0,0,5.35-12.06C160.47,665.74,161.68,659.73,162.72,653.7ZM266.05,244.08c-7.89-7.87-15.59-15.73-24.46-23.73l-2.69,15.2c7.66,8.06,20.76,19.28,24.55,20.93C264.31,252.37,265.16,248.35,266.05,244.08ZM177.59,583.17c1.21-.22,1.61-.17,1.83-.34,5.41-4.38,10.89-8.68,16.14-13.24A9.37,9.37,0,0,0,198,565c1.25-5,2.24-10,3.26-15.06a20.51,20.51,0,0,0,0-3.35c-6.41,4.3-12.24,8.07-17.86,12.11a7.51,7.51,0,0,0-2.29,4.13c-.82,3.38-1.29,6.84-1.88,10.26C178.71,576.28,178.19,579.51,177.59,583.17ZM491.76,370.06c1.63,4.23,3,7.86,4.59,11.88,8.78-3.32,17.06-6.39,25.21-10.14a134.59,134.59,0,0,0-4.23-15.29ZM156.86,686.37l-1-.5c-.74.84-1.54,1.64-2.22,2.53-3.95,5.13-7.79,10.34-11.82,15.4a14.3,14.3,0,0,0-3.08,7.19c-1,6.9-2,13.79-3,20.69a31.69,31.69,0,0,0,0,3.61,31.32,31.32,0,0,0,2.31-2.53c1.89-2.73,3.52-5.66,5.6-8.23a52.94,52.94,0,0,0,12-29.92C155.83,691.85,156.43,689.12,156.86,686.37Zm295.88-324.5c1.45,3.45,2.62,6.65,5.39,9.31l25.21-17c-1.67-4.59-2.59-8.93-5.36-13ZM237.89,388.28c-1.29,6.05-2.47,11.62-3.73,17.52,7.7,1.68,14.93,1.7,22.63,2.42,1.29-5.11,2.53-10,3.89-15.36Zm23.24,2.41a111.69,111.69,0,0,0,3.64-14.36c-5.86-3-19-6.79-22.94-6.6L238.28,386Zm-65,183.2L195,573.2c-5.73,4.71-11.48,9.4-17.16,14.17a4.62,4.62,0,0,0-1.38,2.53c-1.31,6.84-2.51,13.7-3.71,20.56a7.29,7.29,0,0,0,.45,2c1.59-1.41,2.95-2.56,4.24-3.79,3.11-3,6.06-6.16,9.31-9a18.07,18.07,0,0,0,6.6-11.78C193.91,583.17,195.16,578.55,196.13,573.89Zm72.95-214.23c-7.06-4.15-19.47-8.91-23.14-8.9a125.73,125.73,0,0,0-3.24,15.62c7.81,2.4,15,5.16,23.05,6.88Zm-13,51.29c-7.74-1.56-14.94-1.69-22.38-2.27a172,172,0,0,0-3.76,17.84h22.12C253.42,421.21,254.68,416.31,256.07,411Zm-9.56-63.88c7.53,3.61,15.19,6.47,23.27,9.83,1.39-4.93,3-9.18,3.32-13.91L250.37,331.3C248.37,336.56,247.92,341.65,246.51,347.07Zm30.95-19.41c-8-4.92-15.41-9.77-23.69-14.35l-3.27,15.35c7.94,4.17,15.37,8.32,23.58,12C275.27,336,276.31,332.08,277.46,327.66ZM225.08,448.52l22.21-3.31c1.42-5.54,2.71-10.59,4.06-15.88H229.21Zm-.42,2.27c-1.41,6.62-3.12,12.72-3.88,19.72l21.56-5.88c1.44-5.66,2.72-10.72,4.16-16.39C238.8,448.24,232.1,450.06,224.66,450.79Zm53.42-125.54c1.22-4.85,2.17-8.65,3.2-12.73-7.93-5.63-15.32-11.32-23.85-16.59-1.12,5.47-2.08,10.1-3.05,14.82Zm159.37,13.62-26,29.58,5.7,6.37,26-25.42C441.22,345.88,439.59,342.86,437.45,338.87ZM241.58,467.31,219.85,473c-1.36,6.54-2.64,12.78-3.92,19,.92.26,1.28.49,1.52.4,6-2.31,12.06-4.59,18-7.06a4.2,4.2,0,0,0,2.1-2.49C238.93,478.09,240.07,473.27,241.58,467.31Zm20.56-187.9c-2.18,3-3.5,8.35-3.49,13.68,4.88,4.53,19.58,14.65,23.29,16a34.1,34.1,0,0,0,2.67-11.6ZM150.67,719.53l-.94-.21c-4.86,7.31-9.77,14.6-14.55,22a10.92,10.92,0,0,0-1.46,4.18c-1.09,6.89-2.08,13.8-3,20.72a38.86,38.86,0,0,0,0,4.41,18.91,18.91,0,0,0,1.82-2.06c4.42-7.43,8.84-14.86,13.17-22.34a13.41,13.41,0,0,0,1.47-4.19c1.25-6.53,2.4-13.08,3.53-19.63A16.93,16.93,0,0,0,150.67,719.53Zm40-119.6a15.39,15.39,0,0,0-2.54,1.39c-5.12,5-10.29,9.88-15.23,15a10,10,0,0,0-2.12,4.84c-1.14,5.69-2.06,11.42-3,17.15a34.76,34.76,0,0,0,0,4.24c6.28-7.18,11.85-13.5,17.35-19.88a6.24,6.24,0,0,0,1.3-2.64C187.77,613.77,189.07,607.46,190.66,599.93Zm71.1-324.3c6.16,6.16,20.43,17.18,24.2,18.63.92-3.51,1.83-7,2.81-10.68l-24.11-21.47Zm3.45-16.16L289.38,281l2.8-10.93c-7.38-8.62-21.13-21.61-24.41-23ZM210.93,515.28,212,516c6-3.19,12-6.29,18-9.64a6.37,6.37,0,0,0,2.48-3.46c1.19-3.81,2.11-7.71,3-11.59a14.45,14.45,0,0,0-.14-3.34c-6.47,2.56-12.51,4.88-18.47,7.39a4.11,4.11,0,0,0-2.15,2.46C213.32,503.63,212.16,509.46,210.93,515.28ZM501.12,395c5.72-.5,21.41-4.86,24.51-6.74a32.42,32.42,0,0,0-4.11-13.7c-8,3.29-16.24,6.08-24.38,10C498.6,388.39,499.88,391.75,501.12,395ZM184.71,628.05a14.14,14.14,0,0,0-2.31,1.38c-5,5.59-10,11.14-14.78,16.83a10.08,10.08,0,0,0-2,4.42c-1.19,6-2.19,12.08-3.2,18.13a19.27,19.27,0,0,0,0,3c6.2-6.91,11.6-14,17-21.13a4.65,4.65,0,0,0,.87-1.77C181.67,642.35,183.07,635.75,184.71,628.05ZM230.8,508.76c-4.83,2.53-8.46,4.86-12.4,6.38-6.34,2.46-10,6.46-10.41,13.49-.23,3.69-1.4,7.31-2.15,11a169,169,0,0,0,19.3-12,5.87,5.87,0,0,0,1.69-2.92c.72-2.2,1.28-4.47,1.83-6.72C229.32,515.31,229.91,512.62,230.8,508.76ZM458.57,373.64c1.81,3.2,3.32,5.87,5,8.79l25.16-13.34c-1.31-4.39-2.33-8.34-4.94-12.33Zm-258,190.78c1.33-.33,1.71-.32,1.94-.51,3.24-2.57,6.27-5.48,9.74-7.7A23.7,23.7,0,0,0,223.54,538c.24-2,.82-4,1.24-6.08l-.89-.56c-6,4.05-12,8.09-18,12.2a3.59,3.59,0,0,0-1.33,2C203.19,551.69,201.93,557.8,200.52,564.42Zm-43.76,138.9.91.7a11.82,11.82,0,0,1,.82-1.85c4.76-7.19,9.58-14.34,14.29-21.56a13.12,13.12,0,0,0,1.67-4.1c1.21-5.34,2.31-10.7,3.39-16.06a26.49,26.49,0,0,0,0-3.76c-3.28,4.27-5.56,7.72-8.32,10.74-6.71,7.32-11,15.59-11.52,25.68-.12,2.46-.87,4.89-1.24,7.35A19.48,19.48,0,0,0,156.76,703.32ZM263.25,393.43a69.58,69.58,0,0,0-3.72,15c7.7,1,15,2,22.51,1.79,1.28-4.18,2.42-7.91,3.74-12.2ZM281,413.12a145.67,145.67,0,0,0-22.48-2c-1.38,5.07-3,9.82-3.61,15.29,7.75,0,15,.15,22.29-.78C278.47,421.34,279.65,417.45,281,413.12Zm-17.45-22c8.12,1.54,15.38,3.52,23.14,4.35,1.24-4,2.36-7.59,3.63-11.71-7.76-2.58-15-5-23-7.09C266,381.5,264.88,385.9,263.52,391.14Zm31.13-21.27c-7.82-3.45-15.19-6.63-23.26-9.59-1.22,4.92-2.27,9.19-3.46,14l23.14,7.18C292.35,377.31,293.45,373.74,294.65,369.87ZM272.17,357.8c7.95,3.45,15.32,6.7,23.37,9.57,1.21-4,2.24-7.41,3.22-10.63C292,352.17,279,345.82,275.3,345.28Zm30.71-13.72c-4-3.86-19.91-13.38-23.7-14.17-1,3.93-1.95,7.87-3,12.11l23.41,12ZM253.77,429c-1.11,5.44-3.26,10.09-3.32,15.85l21.62-3.12,4.08-13.37A184.13,184.13,0,0,0,253.77,429Zm170-46.38,25.79-21.19-5-9.08c-4.31,2.61-23.51,21.45-25.48,25ZM303.87,341.11c1.19-4.08,2.1-7.18,3.05-10.46l-23.21-16.43c-1.73,4.48-3,8.29-3.11,12.63ZM219,554.52a9.77,9.77,0,0,0-2.1.77c-5.3,4.28-10.65,8.52-15.81,13a8.53,8.53,0,0,0-2.3,4.22c-1.19,4.85-2.15,9.75-3.12,14.64a16.29,16.29,0,0,0,.21,3.32c4.25-4.1,7.68-8,11.69-11.15,6-4.73,8.89-10.91,10-18.2C218,559,218.48,557,219,554.52ZM502.15,397.76,506,408.29c8.39-1.22,16.39-2,24.86-3.77-2-4.63-1.86-9.24-4.66-13.29ZM266.26,458.34c2.88-5.73,4.05-10,3.74-13.9-7,.9-14.05,1.56-20.69,3.18-3.31,10-3.79,12.55-2.91,16ZM284.14,311c5.53,5.21,20.07,15.17,24,16.36.9-2.92,1.8-5.84,2.61-8.49-5.6-5.66-20.07-16.91-23.85-18.47ZM213,578.05a31.27,31.27,0,0,0-3.19,2.22c-4,3.77-7.78,7.72-11.88,11.36a15.54,15.54,0,0,0-5.35,9.75c-.61,4.11-1.65,8.14-2.45,12.22a19.83,19.83,0,0,0,0,3c1.3-1.23,2.17-2,2.9-2.78,3.09-3.48,5.92-7.23,9.26-10.43a28.76,28.76,0,0,0,8.86-16.81C211.5,584,212.2,581.49,213,578.05Zm77.46-291.72c-.89,3.57-1.76,7-2.67,10.69l23.13,18.52c2.35-3.41,2.67-4.34,3.18-8.93C308.91,300.92,294.05,288.06,290.43,286.33Zm-49.61,197c6.5-2.57,12.53-4.94,18.54-7.35a5.87,5.87,0,0,0,2.06-1.32c1.3-1.39,3.52-10.53,3.27-13.49l-20,5.27C242.47,471.72,240.79,478.77,240.82,483.3Zm77.5-188.16c-8.28-7.7-15.5-15.59-24.1-23.15-.74,2.57-1.31,4.42-1.79,6.3-.37,1.42-.62,2.87-1,4.59l23.88,21.33C316.47,300.74,317.33,298.13,318.32,295.14ZM150.71,735.47l.72.26a9.36,9.36,0,0,0,1.24-1.37c4.5-7.56,9-15.1,13.4-22.74a23,23,0,0,0,2.22-6c1.1-4.68,2-9.41,2.94-14.13a20.7,20.7,0,0,0,.18-3.06c-4,4.55-6.91,9.56-10.47,14.08a39.7,39.7,0,0,0-8.22,20.42C152.21,727.11,151.39,731.28,150.71,735.47ZM494.07,382.92c-1.74-4-2.14-8-5-11.45l-24.65,13.16c1.72,3,3.15,5.5,4.72,8.22Zm-259,119.39,1.09.9c6.26-3.35,12.52-6.68,18.77-10a2.24,2.24,0,0,0,1.06-1c1.52-4.27,3.29-8.48,3.84-13.86-6.91,2.72-13.06,5.1-19.15,7.61a3.65,3.65,0,0,0-1.92,2.09C237.43,492.73,236.28,497.53,235.07,502.31Zm19.62-5.55a12.47,12.47,0,0,0-2,.36c-3.84,2-7.68,4-11.49,6-8.94,4.83-6.78,2.08-9.5,11.95a36.12,36.12,0,0,0-1.84,9.49c7-4.71,13.19-8.86,19.34-13.07a4.06,4.06,0,0,0,1.44-2C252,505.51,253.22,501.42,254.69,496.76Zm255.66-76.65c7.64.72,20.82.05,24.16-1.21-1-3.75-2-7.53-3.19-11.8-8.22,1.16-16,1.89-24.31,3.67C508.27,414.29,509.31,417.19,510.35,420.11ZM183.88,642.7l1.27.49c3.1-4,5.91-8.36,9.36-12.07,6.72-7.23,9.91-15.9,11.51-25.36.14-.81.11-1.64.22-3.6-6.31,7.24-11.87,13.59-17.38,20a4.18,4.18,0,0,0-.88,1.76C186.59,630.15,185.24,636.43,183.88,642.7Zm271.3-269.53c-1.2-3.63-2.35-6.62-5.14-9.12-8.22,6.87-16.53,13.33-24.7,20.47l4.87,5.4ZM224.09,544.7l1.12.65c4.1-3.34,8-6.94,12.35-10,5.07-3.52,8.32-8,9.36-14,.31-1.82,1.69-3.48.93-6-4.07,2.68-7.81,5.12-11.53,7.6-2.22,1.48-4.45,2.95-6.57,4.56a4.92,4.92,0,0,0-1.75,2.34C226.61,534.78,225.38,539.75,224.09,544.7ZM494.87,385.53c-8.26,2.25-21.36,7.8-24.39,10.36,1.24,2.18,2.5,4.42,3.66,6.48,7.79-1.13,21.18-5,24.47-7-.61-1.8-1.21-3.68-1.9-5.53C496.19,388.44,495.55,387.1,494.87,385.53Zm-174.94-4.68c-5.14-3.21-19.43-8.87-23.31-9.22-1,3.28-2.12,6.66-3.37,10.57l23.32,7.14C317.81,386.21,318.83,383.64,319.93,380.85Zm-4.24,10.64c-8.12-2.38-15.37-5-23-6.94-1.37,4.15-3.21,7.51-3.08,11.93l22.22,4.41Zm8.62-21.56c-6.23-4.22-19.65-10.86-23.4-11.55-.51,1.48-1.08,3-1.57,4.55s-1,3.41-1.48,5c4.49,3,19.62,9,23.43,9.39ZM311,403.16l-22.89-4.69L284.48,410c4.1,1.56,18.27,2.82,22.87,2.12C308.39,409.59,309.51,406.85,311,403.16Zm18.46-46.31,2.91-7.38c-3.65-3.76-19.73-15-23.61-16.46L306,342.44Zm-4,9.65,2.89-7c-4.67-4.08-19.81-13.08-23.59-14-.91,3.07-1.84,6.17-2.7,9.05C306.54,358,321.33,365.52,325.48,366.5Zm11-26.84c-5.19-5.51-20.31-17.24-23.91-18.51-.88,2.8-1.75,5.59-2.73,8.73,7.85,5.56,15.48,11,23.59,16.74ZM178,670.56l1.16.5c3.41-5.06,6.61-10.28,10.29-15.15a46.33,46.33,0,0,0,9-20.24c.36-2.06.91-4.09,1.37-6.13a2.57,2.57,0,0,0-2.07.91c-4.75,6.2-9.5,12.41-14.19,18.66a8.55,8.55,0,0,0-1.61,3C180.59,658.28,179.32,664.43,178,670.56ZM283.6,413c-1.32,4.48-3.16,8.14-3.56,12.25h22.25c1.28-3.42,2.4-6.43,3.75-10.07ZM218.5,566.7l.85.49c1.1-.89,2.28-1.71,3.3-2.69,4.07-3.94,8-8.07,12.17-11.85,5.12-4.59,5.33-11,7.48-17.08-1.05.2-1.45.15-1.67.33q-8.17,6.57-16.29,13.21a5.31,5.31,0,0,0-1.8,2.33C221.1,556.5,219.83,561.61,218.5,566.7ZM340.21,329.57l-23.45-21c-1.21,3.49-2.15,6.21-3.13,9.06,7.9,6.5,15.49,12.79,23.58,18.84a18.37,18.37,0,0,0,1.36-2.21C339.11,332.88,339.55,331.47,340.21,329.57Zm-39.48,99c-3.7-1.15-17.13-.88-22.28.38l-3.73,12.37,22.36-3.17Zm16.71-123.22c4.91,5.85,20.66,19.46,24.23,20.88.74-2,1.47-3.9,2.26-6-8.12-7.54-15.22-15.57-23.89-22.78ZM511.27,422.8l3.69,9.28,23.69,2c-1.2-4.42-2.18-8-3.07-11.29ZM296,440.71l-22.11,3.14c-1.41,4.63-3.42,8.42-3.61,13.35,6.86-1.81,13.24-3.45,19.58-5.22a3.8,3.8,0,0,0,2.23-1.76C293.41,447.43,294.48,444.51,296,440.71Zm160.8-65.61c-8.72,5.45-16.71,10.86-25.05,16.67,1.64,1.92,2.89,3.37,4.45,5.18,8.39-4.59,16.85-8.49,24.93-13.61ZM290.62,454.21,268.73,460c-1.37,4.41-2.68,8.59-4,12.83.92.18,1.28.38,1.53.28,6.05-2.34,12.11-4.64,18.09-7.15a5.85,5.85,0,0,0,2.65-2.73C288.22,460.72,289.11,458,290.62,454.21Zm188.3-42.54c7.55,0,21.48-2.27,24.38-4l-3.66-9.3-24.26,6.53ZM212.65,589.57l.72.41c.92-.84,1.91-1.61,2.74-2.53,3.33-3.72,6.45-7.64,9.94-11.2,4-4.15,7-8.8,8.14-14.54.35-1.82,1.87-3.49.81-6.09-6,5.85-11.68,11.4-17.32,17a5,5,0,0,0-1.24,2.12C215.13,579.67,213.9,584.63,212.65,589.57Zm-40.79,110,.67.28a26.25,26.25,0,0,0,2-2.59c2.91-4.85,5.5-9.9,8.68-14.56,4.71-6.88,7.29-14.49,8.89-22.54.2-1,.23-2.12.33-3.18a279.61,279.61,0,0,0-16.33,23.27,2.75,2.75,0,0,0-.35.93Q173.82,690.41,171.86,699.6Zm112.32-230c-.85-.09-1.37-.31-1.76-.17-5.71,2.21-11.41,4.42-17.08,6.73a4,4,0,0,0-2.17,1.85c-1.37,3.82-2.5,7.72-4,12.46,2.11-.86,3.31-1.24,4.42-1.82,4-2.05,7.76-4.52,11.88-6.16C281.48,480.07,282.64,475,284.18,469.56Zm254.8-33c-4.11-.43-7.89-1.12-11.68-1.13-3.58,0-7.27-1.88-11.21.07l2.82,7.5,22.67,4.51A27.45,27.45,0,0,0,539,436.58ZM278.29,484.4c-.68-.1-1.06-.27-1.29-.16-5.74,3-11.48,6-17.17,9.05a4.47,4.47,0,0,0-2.1,2c-1.38,3.83-2.55,7.74-4.13,12.67,2.06-1,3.08-1.42,4-2,4.15-2.74,8.08-5.89,12.44-8.23C275.53,494.75,276.64,489.59,278.29,484.4Zm-49.43,94-1.18-.53c-2.74,3.1-5.46,6.23-8.21,9.32-9.19,10.32-9.2,10.32-12.3,23.78a27.52,27.52,0,0,0-.26,3.4c1.71-2.06,2.8-3.31,3.8-4.62,3.94-5.16,7.73-10.44,11.82-15.49C226.35,589.49,227,583.74,228.86,578.36ZM462.44,385.78c-8.54,4.32-16.41,8.4-24.59,13.08L442,403.6l24.61-9.79C465.13,391,463.94,388.68,462.44,385.78Zm-111.88-5.39c1.12-1.82,2.17-3.52,3.53-5.7-8-4.82-15.31-9.72-23.5-14.2l-3,8Zm-14.37,27.87-22.83-4.7c-1.26,3.28-2.35,6.14-3.66,9.57l22.76,2.16Zm9.19-17.37c-7.85-3.42-15.23-6.56-23.13-9.57l-3.33,8.77,23,7.2C343.13,395.1,344.11,393.27,345.38,390.89Zm12.37-23.34c-3.54-3.8-19.51-15-23.43-16.38-.87,2.22-1.73,4.45-2.73,7l23.47,14.37Zm-11.27,21.22c1.17-2.27,2.12-4.08,3.27-6.3-8.1-3.79-15.16-8.38-23.39-11.5l-3.1,8.14Zm-5.58,10.58L318,392.26c-1.24,3.07-2.32,5.77-3.58,8.91a142.13,142.13,0,0,0,23.17,4.55C338.69,403.58,339.6,401.84,340.9,399.35Zm-5.35-51.2,23.57,16.71,2.6-4.88c-4.86-5.22-20-17-23.62-18.33C337.33,343.62,336.56,345.6,335.55,348.15Zm-8,76.45,3.65-7.07-22.58-2.18L305,425C312.86,425.54,319.93,425,327.54,424.6Zm156.56-3.44c7.86-.52,15.54-.05,23.74-1.05l-3.48-9.22-23.88,3.4C481.9,417,482.94,419,484.1,421.16ZM248.46,525.72c1.72-1.11,2.83-1.7,3.79-2.47q6.75-5.47,13.44-11c3.33-2.75,5.54-7.44,5.87-12.86-6.28,4.21-12.3,8.24-18.3,12.31a3.37,3.37,0,0,0-1.25,1.5A64.27,64.27,0,0,0,248.46,525.72Zm90.9-187.32L363,357.31a20,20,0,0,0,1.5-2.11c.41-.87.7-1.8,1-2.57-5.21-6-20-18.77-23.55-20.2C341.14,334.22,340.38,336,339.36,338.4Zm183.37,115c7.59,2.26,14.75,5.1,23,6.74-1.09-3.82-1.93-6.78-2.82-9.92l-23.12-4.66ZM300,437.49a198.94,198.94,0,0,0,22.45-3.08l3.35-6.79h-22C302.52,430.86,301.41,433.74,300,437.49Zm43.2-108.43,23.71,21.15,2.53-4.91-23.5-22.9C344.85,325,344.12,326.74,343.17,329.06ZM221.63,601.3l-.9-.63c-1,1.25-2.13,2.46-3.12,3.75-3.26,4.21-6.24,8.66-9.76,12.63-5.19,5.88-5.28,13.31-7,20.33a11.66,11.66,0,0,0,3-3.12c4-5.93,7.86-12,11.95-17.82C219,611.81,220,606.45,221.63,601.3Zm73.55-151.84,1,.86c5.73-1.53,11.46-3,17.18-4.59,4.24-1.18,5.61-3.05,6.19-8.38-3.49.44-6.92.82-10.32,1.33-3.57.53-7.12,1.19-10.72,1.8C297.31,443.71,296.24,446.58,295.18,449.46Zm-29.49,66.33a33,33,0,0,0-3,1.9c-3.88,3.13-7.48,6.65-11.62,9.37-6.16,4.05-6.77,10.43-8.77,17.61,1.77-1.42,2.68-2,3.47-2.8,4.43-4.26,8.73-8.64,13.26-12.78C262.76,525.66,264.09,521.2,265.69,515.79ZM444.33,405.18a8.86,8.86,0,0,0,.62,1.91c.66.94,1.41,1.82,1.87,2.4,5.71-.48,21.48-5,24.58-7-1.17-2.08-2.35-4.19-3.72-6.65ZM509,423.24c-9.51-.78-19.86-.25-22.93,1.14.69,3.8,2.9,5.6,6.84,5.77,4.81.22,9.61.83,14.42,1.22,1.27.1,2.55,0,4.61,0C510.78,428.17,509.85,425.61,509,423.24Zm40.11,49.07-2.68-9.11-21.88-6.77c.35,4.27,1.31,7,5.08,8.37,5.15,1.88,10.13,4.19,15.2,6.27C545.86,471.48,547,471.7,549.11,472.31Zm-259.28-8.82c1.78-.5,2.88-.72,3.91-1.12,4.62-1.81,9.15-3.9,13.86-5.46,4.17-1.38,5.64-4.43,6.67-8.17-.66-.2-1-.44-1.26-.37-4.18,1-8.37,2-12.51,3.14-7.43,2.05-7.43,2.09-10,9.2C290.28,461.32,290.19,462,289.83,463.49Zm-31.39,70.92-.79-.77c-4.76,4.57-9.38,9.29-14.31,13.67-4.73,4.21-5.19,10-6.44,15.54a16.68,16.68,0,0,0,3.75-3.29c3.94-4.48,7.72-9.11,11.83-13.43C255.7,542.74,257.11,538.63,258.44,534.41Zm25.91-58.22,1,.88c5.7-3,11.34-6.17,17.1-9.06,3.45-1.73,4.86-4.61,5.83-8-.57-.2-.93-.46-1.16-.38-5.88,2.26-11.76,4.51-17.6,6.89a4.28,4.28,0,0,0-2.06,2C286.34,471,285.39,473.62,284.35,476.19ZM490.8,432.28c.36,4.21,2.45,5.73,5.85,6.29,4.92.8,9.79,1.95,14.69,2.91,1.24.24,2.51.33,4.64.59-1.19-3.07-2.11-5.43-3.07-7.92C505.36,433.48,498.2,432.37,490.8,432.28ZM449.75,411.7c2.48,4,2.5,4.16,5.57,3.82,5.28-.6,10.53-1.38,15.79-2.14,1.6-.23,3.18-.66,5.39-1.13l-3.75-6.73Zm78.81,55.37c0,4.15,1.64,6.14,4.42,7.51,5,2.49,10,5.15,15,7.68a27.61,27.61,0,0,0,3.19,1.14c.2-6.17-.48-7.39-5.26-9.42q-6.16-2.61-12.37-5.13C532.09,468.25,530.58,467.78,528.56,467.07Zm-226.19,5.07-.69-.66a22.29,22.29,0,0,0-3.06,1.12c-4,2.08-7.81,4.54-11.94,6.28-5.42,2.27-6.36,6.93-7.28,11.89a227.27,227.27,0,0,0,19.19-12.59C300.36,476.85,301.14,474.19,302.37,472.14Zm-50.92,80.58-1.13-.69c-4.79,5.44-9.55,10.91-14.39,16.31-3.49,3.88-4.21,8.71-4.86,13.71,5.8-6.77,11.31-13.71,16.46-20.91C249.3,558.67,250.17,555.55,251.45,552.72ZM495.27,440.55c.06,3.48,1.76,5,4.37,5.75,5.73,1.76,11.44,3.57,17.18,5.3a12.14,12.14,0,0,0,2.77,0c-1.1-2.67-2-4.76-2.77-6.75Zm59.27,54.16c-.08-5-1.58-7.75-5.52-9.44-4.73-2-9.18-4.69-13.78-7a17.86,17.86,0,0,0-3.22-.87c1.13,4.48,1.11,4.52,4.07,6.36,4.66,2.91,9.34,5.77,14,8.62C551.36,493.13,552.69,493.73,554.54,494.71Zm-99.33-76.83c1.05,2.87,2.33,3.81,4.45,3.76,6.13-.14,12.26-.18,18.39-.32a13.57,13.57,0,0,0,2.76-.77l-2.95-5.82Zm-159.4,66.76-1.1-.84c-4.55,3.05-8.92,6.43-13.7,9.06-4.95,2.72-6.4,7.15-7.89,12.33a7.4,7.4,0,0,0,1.75-.6c5.69-4.61,11.47-9.12,17-13.95C293.57,489.1,294.51,486.67,295.81,484.64Zm189.47-55.39-2.72-5.87c-7.33.26-14.52-.13-21.94.76.72,2.89,2.59,3.21,4.62,3.38,4,.31,7.93.68,11.9,1Zm13.9,19.29c1.91,4.31,1.89,4.35,4.6,5.5,4.1,1.74,8.23,3.42,12.36,5.11,1.93.78,3.87,1.53,6.41,2.53-.24-3.27-.5-5.88-3.18-6.81C513,452.68,506.56,450.82,499.18,448.54ZM268,520.16l16.38-15.83a11.52,11.52,0,0,0,1.68-1.82c.94-1.44,2.12-2.83,2.07-5.59-4.69,3.8-8.64,7.32-12.92,10.38A16.35,16.35,0,0,0,268,520.16Zm-44.15,82.63c6-5.55,18.24-25.53,19.08-31.17-1.35,1.6-2.46,2.8-3.45,4.08-3.24,4.21-6.28,8.58-9.69,12.65S225.29,597.38,223.83,602.79Zm162.5-259.65-5.43,9.25,6.26,7.26,5.84-8.78ZM535.75,486.7c-.23,2.91,1.17,4.36,3,5.65,5.45,3.82,10.86,7.7,16.31,11.53a13.46,13.46,0,0,0,2.2,1c-.34-5.35-.43-5.6-3.79-7.7q-7.2-4.5-14.47-8.9C538.09,487.7,537.05,487.31,535.75,486.7ZM394.6,352.77,389,361.48l6.32,5.72,5.49-7.29ZM560.05,515.68c.25-4.12-.92-6.19-3.32-7.83-5.06-3.45-10-7.07-15-10.58a31.52,31.52,0,0,0-3.15-1.66c.49,1.52.5,2.51,1,2.93C546.08,504.08,552.68,509.55,560.05,515.68Zm-56.45-58.9c.84,4.21,4.26,4.51,6.62,5.92s5,2.61,7.53,3.92a60.45,60.45,0,0,0,8.25,4c-.32-3.67-1.47-5.66-4.38-6.75-4.67-1.75-9.23-3.81-13.85-5.7C506.6,457.67,505.37,457.35,503.6,456.78Zm-14.39-19.93c-2.2-5-2.19-5.12-5-5.4-5.44-.54-10.9-1-16.35-1.41a7.58,7.58,0,0,0-2.05.43c0,.36,0,.72,0,1.08C473.07,434.39,480.83,435.16,489.21,436.85ZM262,535c2.3-2.55,4.62-5.08,6.89-7.65q4.92-5.57,9.79-11.2a5.23,5.23,0,0,0,1.55-4.69c-5.47,5.36-10.33,10.06-15.13,14.83C262.8,528.61,262.36,531.73,262,535ZM397,369.09l5.84,5.63,5.41-6.29c-2.07-2.27-3.86-4.21-5.93-6.47ZM218,623.61c2.38-4,4.23-7.09,6.06-10.18q2.94-4.92,5.86-9.86c3.88-6.52,3.88-6.52,3.85-9.36C223.92,606,218.76,615.27,218,623.61ZM508.25,464.72c-.18.31-.36.61-.55.91,2.79,3.11,6.73,4.76,10.22,6.89s6.86,4.93,11.1,6.31c.11-3.07-1.39-4.56-3.62-5.69-4.88-2.45-9.69-5-14.55-7.5A20.52,20.52,0,0,0,508.25,464.72ZM470.64,436c3.26,2.57,16.23,6.84,21.86,7.39,0-2.66-1.5-3.78-3.88-4.24-4.58-.89-9.14-1.88-13.71-2.76C473.69,436.13,472.42,436.13,470.64,436ZM415,376.33c-1.77-2.05-3.32-3.83-5.25-6.05l-4.86,6.13,4.53,5.37Zm149.36,157,1.1-1c-1.46-4.62-5.93-6.69-9.12-9.79a72,72,0,0,0-10.15-8.62l-.72.82ZM512.5,472c4,5,15.92,13.33,20.52,14.9-1.3-1.84-1.84-3.31-2.9-4C524.32,479.16,518.39,475.61,512.5,472Zm-90.74-87.83-5.08-5.92-5,5.15,5,4.87Zm-68.7-2.56,6,3,2.8-5.13-5.71-3.41Zm8.17-15.39,6.16,4.42c1-1.89,1.69-3.24,2.52-4.81L364,361.43Zm4.73,6.54c-2.11-1.48-3.46-3.4-6.22-3.68l-2.38,4.74,5.91,3.63ZM423.43,386l-4.74,4,3.77,4.77c1.55-.8,2.28-1.16,3-1.56.85-.49,1.67-1,2.71-1.66Zm-52.15-38.59-2.2,4.8,6,5.19,2.33-4.12Zm-16.94,44.68,3.45-5.19-5.81-3L349,389.56Zm-9.95,5.83,5.78,1.86,3.1-5.7-5.66-2Zm33.81-25.16-6.13-5c-1,1.56-1.72,2.72-2.65,4.21,2.21,1.6,4.13,3,6.31,4.55Zm-10.06,1.34-2.67,4.82,6.11,3.77c.95-1.41,1.72-2.54,2.69-4Zm5.73-14.46-6.23-5.45-2.38,5,5.88,4.56Zm-12.27,38-6-2.37c-1,1.87-1.86,3.36-3,5.33l6.09,1.84Zm17.66-43-1.95,4.94c2.07,1.82,3.89,3.44,6.07,5.37l1.74-2.66Zm2.83,12.59c-2.4-2.05-3.65-4.71-6.95-5.13l-1.63,3.68,6,4.83Zm-36.57,40.45,3.29-5.73-5.58-1.74c-1.12,2.25-2,4-3.19,6.37Zm15.68-21.9,6.39,3.26c1-1.63,1.64-2.82,2.53-4.33l-5.9-3.62Zm-22.66,23.2-3.27,6.49,5.55.27,3.11-5.78Zm12.71-6.19c-1.09,2.2-3,3.34-2.14,5.81l4.89.81,3.08-4.8Zm-20.51,21.09c5.17,1,5.42.82,7.75-5.43l-4.65-.68C332.68,420,331.75,421.85,330.74,423.83ZM352,411.71l-5.16-1.29c-1.11,1.82-2.07,3.4-3.08,5.08C349,417.25,349.06,417.21,352,411.71Zm77.61-18.53-4.64,3.45,4.37,3.92,4.46-2.62Zm-82.89,26.24c-5.1-1.32-5.43-1.12-7.31,4.4C344.12,424.75,344.13,424.75,346.68,419.42Zm46.76-50.28-5.58-5.63-2.61,3.65,3.25,2.43,2.71,2a7,7,0,0,0,1.36-.87A7.42,7.42,0,0,0,393.44,369.14Zm-3.4,5-5.89-5.17-2.32,3.47,5.85,4.52Zm-63.88,59.36c4.91-.14,5.61-.82,6.75-6.13C328.36,427.07,328.14,427.26,326.16,433.46ZM370,390.17l5.52,2.91,2.52-3.64-5.45-3.25Zm6.35-10.23c-.87,1.91-1.42,3.11-2,4.43l5.4,3.14,2.39-3.4Zm1.59-1.92,5.63,4.07c.93-1.12,1.59-1.92,2.54-3l-5.59-4.54Zm-20.84,15,6.14,2.52,1.85-3.66-5.62-2.73Zm2.44,12L357,410l5.12,1,2.6-4.07Zm1.91-2.48c5.27,2.78,5.72,2.64,7.25-2.09l-4.57-1.69ZM320.55,443c4.89-.35,5.82-1.33,6.76-6.52C322.72,436,322.37,439.78,320.55,443Zm118.57-38.94c-1.38-1.49-2.45-2.66-3.74-4.07l-3.76,2.46C434.8,406.44,434.8,406.44,439.12,404.07Zm-86.76,12.46c3.15,1.45,5.15,1,6.51-1.45a10.53,10.53,0,0,0,.55-2.14l-4.57-.61Zm-16.44,19.35c-4.45-.71-5.55.22-6.25,5.2C333.29,441.18,334.76,438.77,335.92,435.88Zm-20.64,17.54c4.86-1.85,5.25-2.31,6.41-7C317.12,446.18,317.06,449.88,315.28,453.42Zm32.58-29.59c4.5.25,4.5.25,6.41-3.66C350.07,419,350.07,419,347.86,423.83Zm20-30.55L366,396.2c4.69,3,4.72,3,6.71-.42Zm70.05,15.11c2.43,3.47,2.43,3.47,5.71,1.84C441.46,406.21,441.46,406.21,437.88,408.39ZM393.69,385l-4.47-3.4-2.09,2.9,4.14,3.05ZM324,450.07c3.7-.59,5.08-2.69,6.09-5.55C325.86,444.74,325.86,444.74,324,450.07Zm-7.77,6.4c-4.42.62-4.82,3.71-6.12,7.08C314,462.3,315,459.67,316.18,456.47Zm82.16-73-.84,1.25a36.53,36.53,0,0,0,3.93,3.24c.51.32,1.54-.19,2.9-.41C402.41,385.11,401.36,382.67,398.34,383.48Zm.35-5c1.88-1,2.22-2,1.28-3.08s-2.22-2.08-3.63-3.37c-.72,1.28-1.09,1.95-1.63,2.9Zm-15.65,11,4.15,2.71,2.42-2.93-4.44-2.67Zm-6.59,14.74c-3.76-2-3.76-2-5.28,1.66C373.43,407.74,375,407,376.45,404.25Zm19.18-17.45-1.71,2.11c3.87,3.79,3.87,3.79,6.17,1.62a11.43,11.43,0,0,0-1.25-1.43C398,388.39,397,387.78,395.63,386.8Zm-.42-4.08,2-1.89a19.83,19.83,0,0,0-1.86-2.07,25,25,0,0,0-2.41-1.52C391.09,380,391.09,380,395.21,382.72ZM390,393.29c4.15,3.68,4.15,3.68,5.93,1C392.59,391.23,392.59,391.23,390,393.29ZM385.92,398c4.12,3.08,4.12,3.08,6.13.09l-4.17-2.45Zm21.89-13.71c-1.4-2.81-2.81-4.58-5.34-5.39C401.72,382.18,403.08,383.67,407.81,384.27Zm-71.89,45.8c4.34.49,4.34.49,5-3.07C336.94,427,336.94,427,335.92,430.07Zm43.5-35.35c3.85,2.47,3.85,2.47,5.39-.8C381.65,391.81,381.65,391.81,379.42,394.72Zm4,12.36c-3.62-2-3.62-2-5.57.5C380.86,409.58,380.86,409.58,383.43,407.08Zm-17,4.28c3.16,1,3.16,1,5.07-1.61C368.77,408.05,368.77,408.05,366.39,411.36Zm-28.47,27.05c4-.45,4-.45,4.94-4C339.84,433.74,339,435.77,337.92,438.41Zm-13.63,14.94c-3.91.44-4.81,2.53-5.63,5.57C321.84,458.16,322.91,456.22,324.29,453.35Zm80.94-63.08c1.3,1.59,2.11,4,5.85,2.92C409.12,391.3,408.29,389.09,405.23,390.27Zm1.34,6.89c-2-4.27-2.5-4.53-5.23-3.18C402.3,395.88,403.73,396.91,406.57,397.16Zm42,18.91c-2.12-3.47-2.12-3.47-5.07-1.81C444.62,416.17,445.94,417.28,448.61,416.07Zm-52-18.31c2.35,1.44,3.45,3.54,6.22,1.69C401.34,397.5,400.18,395.92,396.61,397.76Zm-35.08,20c3.05.51,4.57-.25,5.07-3C364,413.63,362.8,415,361.53,417.77Zm18.72-17.45c-3.2-2.66-3.2-2.66-4.88.05C376.83,401.51,378.25,402.29,380.25,400.32ZM413,391.14l1-.95c-.1-1.95-1.74-2.9-3.06-3.93-.43-.34-1.46.11-3.26.31Zm-56.33,32.54c3,.55,4.19-.52,4.82-3.05C358.63,419.85,357.91,421.66,356.71,423.68Zm21.89-11.74c-3.41-2.13-3.42-2.12-5.24.92C376.14,413.72,376.14,413.72,378.6,411.94Zm14.65-10.44c3.08,2.62,3.08,2.62,5.35.84C397,401.3,395.92,399.27,393.25,401.5Zm-49,27.64c2.26.62,4.07.77,4.81-2.36C346.79,426.48,344.91,426.16,344.24,429.14Zm24.45-11c3.33.34,3.33.34,4.58-1.88C370.63,415.52,370.63,415.52,368.69,418.12Zm-31,24.44c-3.38.14-3.38.14-4.34,3.72C335.68,446,336.69,444.52,337.66,442.56ZM305.32,473c2.88-1.82,2.88-1.82,4-5.43C306.19,468.26,305.77,470.64,305.32,473Zm58.47-49.38c2.65.6,3.9-.11,4.71-2.16C365.78,421.07,365.78,421.07,363.79,423.57Zm21-13.22c1.86.8,3.35,1.91,5-.71C388,408.51,386.47,407.35,384.82,410.35Zm.48,3.47c-2.08-1.69-3.39-1.68-4.62.54C382.4,415.7,383.7,415.64,385.3,413.82Zm-3.73-11.14c3.25,1.89,3.25,1.89,5.51.77C385.53,402,384.19,400.54,381.57,402.68ZM449,419.21c1.69,2.35,1.69,2.35,4.19,1.43C452.18,418.88,451,418.05,449,419.21ZM421.7,404.12l1.3-1.62c-.75-.36-1.49-.75-2.26-1A14.25,14.25,0,0,0,419,401l-.36.77Zm-31.63.67-.47,1.35c1,.93,2.07,1.91,4.55.35ZM380,417.88c-2.57-.84-2.57-.84-3.51,1.16C378,419.66,379.22,419.57,380,417.88Zm31.72-22.47c.86,1.93,1.59,3,3.73,2C414.72,395.94,414.07,394.87,411.73,395.41Zm3.68,7.31c.84,2.89,1.84,3.75,3.11,2.59Zm9.91-.51c0-2.16-.91-3.34-3.23-3Zm-11.56,6.15c0-2-.79-3-3.26-2.27Zm-3-7.64.54-1.12c-.72-1.07-1.42-2.2-3.64-.48ZM331.3,451.37l-.8-.84c-1.48.37-2.42,1.32-2.05,3.63Zm85.25-59.14-1,1,2.56,2c.24-.27.47-.55.71-.83Zm-65.88,41.68-.88-.91-2.53,2.55.81.85Zm51.45-27.16c.46-.51,1-1,1-1.1-.29-.46-.7-1-1.17-1.14-.28-.06-.74.66-1.11,1Zm-30.7,16.58c1.94.08,3.21.55,3.06-1.7-.46,0-1-.22-1.38,0S372.29,422.4,371.42,423.33Zm33.76-22.05c0,2.26.82,2.6,2.71,1.19Zm4.65,9.15c-.49-1.67-1.21-2.71-3-1.22Zm45.43,13.82-.68,1,2.67,1.3c-.05-.82,0-1.28-.1-1.37A20.85,20.85,0,0,0,455.26,424.25ZM401,415.32l.36-1a10.11,10.11,0,0,0-1.58-.53,5.44,5.44,0,0,0-.42,1.06ZM422,407.81l-.54.65,2,1.61.46-.52Zm-65.72,19.58-.42-.84-2.08,1.05c.13.27.27.54.41.81Zm-1.58,6,.64,1L357,433l-.4-.65Zm105.78-2.51.8-.28c-.1-.27-.23-.78-.3-.77a4.55,4.55,0,0,0-1,.35ZM294.05,493.44l.29.2.82-1.12-.35-.24ZM393.4,413l.81-1.19c-.37-.19-.78-.58-1.12-.53s-.55.57-.82.88C392.61,412.44,392.94,412.69,393.4,413Zm20.92-1.14-.5.89,1.68.55.24-.55Zm-53.26,14.68c0,.25,0,.49,0,.74.5-.06,1-.11,1.49-.18a1.06,1.06,0,0,0,0-.35C362.07,426.71,361.57,426.64,361.06,426.58Zm-18.2,14.9.72.55.23-1.26Zm52.71-24.73a3.48,3.48,0,0,0-.32.64s.27.26.35.22a3.5,3.5,0,0,0,.62-.41Zm-6.2-1.59c-.26-.09-.57-.31-.75-.23s-.38.45-.57.69a4.33,4.33,0,0,0,1,.33C389.15,416,389.27,415.44,389.37,415.16Zm7.88-5.7L398,409c-.19-.2-.43-.58-.56-.55a3.46,3.46,0,0,0-.91.55Zm22.09,1.76-.65-1-.76.65Zm-15.2.84a1.39,1.39,0,0,0,.38.12s.08-.19.12-.29a1.07,1.07,0,0,0-.38-.1S404.18,412,404.14,412.06Zm-20.06,7.08.17-.26-.28,0Zm7,1,.17-.24-.27,0Z"/></g></g></g></svg>