<svg xmlns="http://www.w3.org/2000/svg" viewBox="0 0 300.57 427.45"><defs><style>.cls-1{fill:#fff;}</style></defs><g id="Layer_2" data-name="Layer 2"><g id="Layer_1-2" data-name="Layer 1"><path className="cls-1" d="M209.91,43.18c-5.39-2.16-10.74-4.42-16.17-6.46a125.42,125.42,0,0,0-54.46-7.24C120.1,31,102.16,36.56,86.43,48.29c-8.84,6.6-13.23,15.59-15.17,26.06-2.67,14.31.79,27.79,6.09,40.89,15.49,38.32,43.32,62.72,83.21,73.22,10,2.64,20.24,3.76,30.61,1.92,8-1.42,15.1-4.11,19.3-11.74,9.39,10.86,19,42.81,13,55.22-2.79-2.48-5.64-5.21-8.7-7.68-9.92-8-21.58-12.41-33.63-15.84-11-3.14-22.28-5.57-33.2-9A171.71,171.71,0,0,1,89,169.51a158.73,158.73,0,0,1-37.44-45A147.08,147.08,0,0,1,34.43,75.27C31.81,58.32,31.86,41.42,37.92,25,40.88,17,45.09,9.84,53,6A51.2,51.2,0,0,1,66.18,1.48C76.68-.44,87.28-.28,97.94.76c24.08,2.34,47,9,69.15,18.34C181,25,194.58,31.8,207,40.57a25.52,25.52,0,0,1,2.83,2.68Z"/><path className="cls-1" d="M90,263.25c4.43,1.87,8.84,3.79,13.29,5.62A119.69,119.69,0,0,0,158.45,278c19.15-1.43,37.34-6.22,53.44-17.4,15-10.43,20.07-25.14,18.35-42.59-2.13-21.72-11.52-40.54-24.45-57.67-8.92-11.83-20.18-21.14-32.94-28.63-12.61-7.4-26-12.87-40.54-14.7a111.21,111.21,0,0,0-23.36-.27c-7.89.68-14.57,4.49-18.65,11.87C80,116.22,70.6,83.5,77.4,71.88c.3.1.74.11.89.32,8,11,19.55,16.88,32,21.07,8.82,3,17.83,5.4,26.86,7.62,28.23,6.92,54,18.85,76.25,37.72a153.56,153.56,0,0,1,35.46,43.53,148.53,148.53,0,0,1,17.7,54.28c1.52,12.62,1.41,25.26-1.78,37.66a84.89,84.89,0,0,1-4.85,13.07,27.54,27.54,0,0,1-18.74,16,83.39,83.39,0,0,1-18.12,3c-31.05,1.31-60.28-6.75-88.71-18.3a223.79,223.79,0,0,1-40.1-21.2,46.79,46.79,0,0,1-4.15-3.47Z"/><path className="cls-1" d="M157.46,303.45c-53.69,1.17-97.37-19.27-129.15-62.88C3.49,206.49-4.56,168,3.33,126.32c0,4.82-.09,9.64,0,14.46.75,35.59,12.49,66.67,37.35,92.56,13.85,14.42,29.71,26.16,46.79,36.29,16.32,9.67,33,18.7,50.74,25.58,5.27,2,10.67,3.76,16,5.65,1.21.43,2.4.92,3.6,1.39Z"/><path className="cls-1" d="M297.78,178.21a225.88,225.88,0,0,0-2-32.86,127.81,127.81,0,0,0-17.37-48c-13.3-22-31.92-38.64-53.24-52.41-25-16.11-51-30.15-79.55-38.88a25.5,25.5,0,0,1-3.22-1.3c-.21-.09-.25-.55-.5-1.16a22.73,22.73,0,0,1,2.79-.45c30-.87,58.06,6.1,83.63,22,36.94,23,59.83,56.08,69,98.59,3.75,17.42,3.37,35.06,1.24,52.67a5.86,5.86,0,0,1-.86,1.76Z"/><path className="cls-1" d="M59.13,243.18c-7.93-4.85-14-11.83-20-18.68a121.66,121.66,0,0,1-28.74-60.05c-5.61-32.08-1.21-62.62,14.27-91.4.84-1.55,1.94-3,3.27-5,.63,1.22,1.1,1.74,1.15,2.3a129.8,129.8,0,0,0,6.26,28.71,9.63,9.63,0,0,1-.17,7.23c-8,19-10.49,38.87-8.76,59.21a119.56,119.56,0,0,0,15.81,50.09c5,8.63,10.65,16.87,16,25.3a12.34,12.34,0,0,1,.84,2.3Z"/><path className="cls-1" d="M241.83,64.23a13.15,13.15,0,0,1,3,1.52c14.3,12.71,26.71,26.94,34.92,44.43A125.38,125.38,0,0,1,291,150.37c2.4,22.19.79,43.92-7.18,64.89-2.59,6.82-6,13.33-9.15,20a20,20,0,0,1-2.35,2.9c-.7-4.5-1.07-8.23-1.89-11.85-1.41-6.16-3-12.3-4.76-18.36a10.73,10.73,0,0,1,.21-7.71c7.76-18.51,10.22-37.92,8.65-57.75-1.56-19.56-7.89-37.76-17.84-54.63-4.13-7-8.83-13.7-13.25-20.55-.62-1-1.08-2-1.61-3.06Z"/><path className="cls-1" d="M57.19,388.22c0,4.66.05,9.32,0,14-.16,13.78-10.28,24.48-24,25a49.92,49.92,0,0,1-14.31-1C7.42,423.19.59,414.34.23,402.49Q-.22,387.76.22,373c.42-13.47,10.78-23.75,24.7-24.78,6.69-.5,13.28.08,19.36,3.43,8.32,4.58,12.53,11.68,12.88,21.06C57.35,377.89,57.19,383.06,57.19,388.22Zm-8-.33h0c0-5,.11-10,0-15-.21-6.92-3.4-12-9.71-15a23.81,23.81,0,0,0-18.88-.92c-7.42,2.54-12.16,8.63-12.27,16.46-.14,9.66-.16,19.32,0,29,.13,7.8,4.85,13.94,12.23,16.51a25.39,25.39,0,0,0,15.21.42c8.54-2.27,13.3-8.18,13.46-16.92C49.25,397.54,49.18,392.71,49.18,387.89Z"/><path className="cls-1" d="M89.35,399.5v26.17h-7V350.38c.43-.33.7-.7,1-.7,10.11,0,20.26-.41,30.34.29,15.67,1.09,22.07,16.15,19.95,28.62-2.25,13.21-10.92,20.11-25.38,20.5-4.49.12-9,0-13.47,0C93.14,399.15,91.53,399.35,89.35,399.5Zm.27-8.19c6.74,0,12.85,0,19,0a22.65,22.65,0,0,0,5-.28,17.45,17.45,0,0,0,5.06-1.94c5.71-3.47,7.53-8.88,7.43-15.29-.16-10.35-6.06-16.48-16.3-16.62-5.14-.08-10.28,0-15.42,0-1.44,0-2.89.23-4.69.39Z"/><path className="cls-1" d="M152.44,415.32c4.88,1.48,9.68,3.38,14.66,4.33,6.4,1.23,12.91,1.22,19.12-1.41,4.57-1.93,7.85-5,8.65-10.12,1-6.34-1.27-10.88-7.65-13.55-5.34-2.24-11.1-3.44-16.55-5.45-4.17-1.55-8.49-3.13-12.14-5.59-9.86-6.65-9.76-22.56-.15-29.7,7.77-5.78,16.62-6.27,25.71-5.24a37.32,37.32,0,0,1,8.65,2.23c5.34,2,5.6,2.65,4.63,9.27-1.58-.65-3-1.29-4.44-1.84-8-3-16.08-4.16-24.36-1.36-5.27,1.79-9,5.08-9.51,11-.4,4.73,1.26,8.76,5.77,10.66,5.18,2.18,10.62,3.76,15.94,5.62,3.6,1.26,7.29,2.32,10.76,3.87,7.19,3.22,11,8.92,11.29,16.82.28,8.25-3.37,14.56-10.41,18.58A28.43,28.43,0,0,1,182.14,427c-8.66,1.09-17.26.46-25.47-3C151.62,421.87,151.24,421.13,152.44,415.32Z"/><path className="cls-1" d="M268.9,417.2c1.25,5.73,1,6.5-3.61,7.93a44.66,44.66,0,0,1-24.6,1.07C229.05,423.29,222,414.29,222,402.25c-.08-9.16,0-18.33,0-27.49.05-15.32,10-25.65,25.37-26.49A52,52,0,0,1,265,350.49c5,1.47,5.42,2.37,4,8-4.17-1-8.31-2.19-12.54-2.85-6.75-1.06-13.27-.26-19.16,3.57a15.25,15.25,0,0,0-7.42,12.89c-.22,10.32-.31,20.66,0,31,.25,9.33,7.5,16.1,17.68,17a42.88,42.88,0,0,0,16.77-1.65C265.68,418.06,267.11,417.7,268.9,417.2Z"/><path className="cls-1" d="M299.43,425.77h-5.61c-1.27-3.46-1.64-69.7-.35-76,1.31-.1,2.75-.29,4.19-.29a2.65,2.65,0,0,1,2.85,2.8c0,.5.06,1,.06,1.5q-.31,34.71-.65,69.42A17.49,17.49,0,0,1,299.43,425.77Z"/><path className="cls-1" d="M297.72,178.16c-.05.58-.11,1.17-.16,1.75l-.49-.14.71-1.56Z"/><path className="cls-1" d="M209.85,43.25l.84.13-.23.43-.55-.63Z"/><path className="cls-1" d="M241.87,64.2l-.35-.17.31.2Z"/><polygon className="cls-1" points="59.07 243.24 59.36 243.46 59.13 243.18 59.07 243.24"/><polygon className="cls-1" points="90.1 263.19 89.83 262.98 90.04 263.25 90.1 263.19"/></g></g></svg>