<svg width="20" height="20" viewBox="0 0 20 20" fill="none" xmlns="http://www.w3.org/2000/svg">
<g clip-path="url(#clip0_282_472)">
<path d="M9.48605 0.418457C9.83652 0.418457 10.187 0.418457 10.5375 0.418457C10.5608 0.418457 10.6076 0.440671 10.6309 0.440671C10.6776 0.440671 10.7477 0.440671 10.7945 0.440671C11.0047 0.462884 11.215 0.485098 11.4019 0.507311C11.729 0.551738 12.0561 0.618379 12.3833 0.685019C12.7571 0.773873 13.1309 0.884941 13.4814 1.01822C13.7618 1.12929 14.0655 1.24036 14.3225 1.37364C14.5328 1.46249 14.7431 1.57356 14.9533 1.68463C15.187 1.7957 15.3973 1.92898 15.6076 2.06226C15.8879 2.23997 16.1449 2.43989 16.4019 2.63981C16.5889 2.7953 16.7758 2.9508 16.9393 3.10629C17.0328 3.19515 17.1029 3.26179 17.1963 3.35064C17.2431 3.39507 17.2898 3.4395 17.3365 3.50614C17.4533 3.63942 17.5702 3.75049 17.6636 3.88377C17.7804 4.01705 17.8973 4.15033 18.0141 4.30582C18.1776 4.50575 18.3178 4.70567 18.458 4.9278C18.5748 5.10551 18.6917 5.28322 18.7851 5.46093C18.9954 5.81634 19.1823 6.19397 19.3225 6.59382C19.4393 6.92702 19.5561 7.23801 19.6496 7.59343C19.7431 7.92663 19.8132 8.25983 19.8599 8.59303C19.9066 8.8596 19.93 9.12616 19.93 9.39272C19.93 9.41494 19.93 9.43715 19.9533 9.48158C19.9533 9.79257 19.9533 10.1258 19.9533 10.4368C19.9533 10.459 19.93 10.5034 19.93 10.5256C19.93 10.7255 19.9066 10.9255 19.8833 11.1254C19.8365 11.3919 19.7898 11.6807 19.7431 11.9473C19.6496 12.4138 19.5094 12.8802 19.3225 13.3245C19.1356 13.8132 18.9019 14.2797 18.6216 14.724C18.458 15.0127 18.2244 15.3237 17.9907 15.6347C17.8973 15.768 17.7804 15.8791 17.687 16.0124C17.5702 16.1456 17.4533 16.2789 17.3132 16.4122C17.1029 16.6121 16.916 16.812 16.6823 16.9897C16.4954 17.1452 16.3085 17.2785 16.1216 17.434C15.8646 17.6339 15.5842 17.8116 15.3038 17.9894C15.0935 18.1226 14.8599 18.2337 14.6496 18.3448C14.4861 18.4336 14.2991 18.5225 14.1122 18.5891C13.8552 18.7002 13.5982 18.789 13.3412 18.8779C12.9206 19.0112 12.5001 19.1222 12.0795 19.2111C11.8692 19.2555 11.659 19.2777 11.4487 19.3222C11.2618 19.3444 11.0982 19.3666 10.9113 19.3888C10.7244 19.411 10.5608 19.411 10.3739 19.4332C10.3505 19.4332 10.3038 19.4332 10.2804 19.4555C10.0935 19.4555 9.92998 19.4555 9.74306 19.4555C9.7197 19.4555 9.69634 19.4332 9.67297 19.4332C9.55615 19.4332 9.46269 19.411 9.34587 19.411C9.18232 19.411 9.04213 19.3888 8.90194 19.3666C8.6683 19.3444 8.45802 19.3222 8.24774 19.2777C7.78045 19.1889 7.31316 19.0778 6.86923 18.9445C6.58886 18.8557 6.30848 18.7446 6.05148 18.6335C5.88792 18.5669 5.74774 18.5003 5.58419 18.4336C5.42063 18.367 5.28045 18.2781 5.14026 18.2115C4.76643 18.0116 4.41596 17.7894 4.06549 17.5451C3.85521 17.3896 3.64493 17.2341 3.43465 17.0564C3.29447 16.9453 3.15428 16.812 3.03746 16.701C2.92063 16.5899 2.82718 16.5011 2.71035 16.39C2.6169 16.3011 2.52344 16.2123 2.45334 16.1234C2.31316 15.9679 2.17297 15.7902 2.03278 15.6125C1.86923 15.4126 1.72905 15.2127 1.58886 15.0127C1.47204 14.835 1.35521 14.6351 1.23839 14.4352C1.05148 14.0798 0.864559 13.7244 0.701008 13.3467C0.560821 13.0135 0.467363 12.7025 0.373905 12.3693C0.257082 11.9251 0.163624 11.4808 0.116895 11.0365C0.093531 10.9477 0.093531 10.8588 0.093531 10.77C0.093531 10.6589 0.0701665 10.5478 0.0701665 10.4368C0.0701665 10.3701 0.0701665 10.3257 0.046802 10.259C0.046802 10.2368 0.046802 10.2146 0.0234375 10.2146C0.0234375 10.0369 0.0234375 9.85921 0.0234375 9.70371C0.0234375 9.6815 0.046802 9.65928 0.046802 9.63707C0.0701665 9.48158 0.0701665 9.32608 0.093531 9.14837C0.093531 8.97066 0.116895 8.81517 0.14026 8.63746C0.186989 8.32647 0.257082 7.99327 0.327176 7.68228C0.420634 7.30465 0.537456 6.92702 0.701008 6.5716C0.771101 6.37168 0.864559 6.17176 0.958017 5.97184C1.0982 5.70528 1.21503 5.46093 1.37858 5.19437C1.56549 4.88338 1.79914 4.57239 2.00942 4.2614C2.17297 4.03926 2.35989 3.83934 2.5468 3.63942C2.66362 3.52835 2.78045 3.39507 2.89727 3.284C3.06082 3.10629 3.24774 2.97301 3.43465 2.81752C3.64493 2.63981 3.85521 2.48432 4.06549 2.32882C4.29914 2.17333 4.53278 2.01783 4.76643 1.86234C4.97671 1.75127 5.16362 1.6402 5.37391 1.52913C5.63091 1.39585 5.91129 1.26257 6.19166 1.17372C6.44867 1.08486 6.70568 0.996009 6.93933 0.907155C7.07951 0.862728 7.2197 0.818301 7.35989 0.796087C7.68699 0.707233 8.01409 0.640592 8.3412 0.596165C8.55148 0.573952 8.73839 0.529525 8.94867 0.507311C9.08886 0.485098 9.25241 0.485098 9.41596 0.462884C9.41596 0.440671 9.43933 0.418457 9.48605 0.418457ZM8.52811 14.2131C8.57484 14.2353 8.62157 14.2353 8.6683 14.2353C9.67297 14.2353 10.6543 14.2353 11.659 14.2353C11.8225 14.2353 11.9861 14.2353 12.1496 14.2131C12.2898 14.1908 12.43 14.1908 12.5468 14.1686C12.8038 14.1242 13.0375 14.0798 13.2711 14.0131C13.5748 13.9243 13.8552 13.791 14.1356 13.6577C14.416 13.5022 14.6963 13.3023 14.93 13.0802C15.0234 12.9913 15.0935 12.9025 15.187 12.8136C15.3038 12.6803 15.4206 12.547 15.5375 12.3915C15.6543 12.2138 15.7711 12.0139 15.8646 11.814C15.958 11.6141 16.0281 11.3919 16.0982 11.1698C16.1449 11.0143 16.1683 10.8588 16.1917 10.7033C16.1917 10.5923 16.215 10.459 16.215 10.3479C16.215 10.148 16.215 9.92585 16.1917 9.72593C16.1683 9.45936 16.0982 9.1928 16.0047 8.92624C15.9347 8.68189 15.8178 8.45975 15.701 8.25983C15.5375 7.97106 15.3272 7.70449 15.0935 7.48236C15.0234 7.41572 14.93 7.32686 14.8599 7.26022C14.6963 7.12694 14.5328 7.01587 14.3692 6.92702C14.1356 6.79374 13.9019 6.68267 13.6449 6.59382C13.3646 6.48275 13.0608 6.41611 12.7571 6.37168C12.5234 6.32726 12.2664 6.30504 12.0328 6.30504C10.9347 6.30504 9.83652 6.30504 8.73839 6.30504C8.71503 6.30504 8.69166 6.30504 8.6683 6.30504C8.64493 6.30504 8.62157 6.30504 8.5982 6.32726C8.5982 6.34947 8.5982 6.34947 8.5982 6.37168C8.5982 8.97066 8.5982 11.5696 8.5982 14.1686C8.52811 14.1686 8.52811 14.1908 8.52811 14.2131ZM5.56082 6.30504C5.56082 6.37168 5.56082 6.41611 5.56082 6.46054C5.56082 8.99288 5.56082 11.5474 5.56082 14.0798C5.56082 14.102 5.56082 14.1464 5.56082 14.1686C5.56082 14.1908 5.56082 14.2131 5.58419 14.2353C5.60755 14.2353 5.63091 14.2353 5.65428 14.2353C5.98138 14.2353 6.33185 14.2353 6.65895 14.2353C6.68232 14.2353 6.70568 14.2353 6.72904 14.2353C6.75241 14.1908 6.75241 14.1464 6.75241 14.102C6.75241 11.5696 6.75241 9.01509 6.75241 6.48275C6.75241 6.46054 6.75241 6.41611 6.75241 6.3939C6.75241 6.37168 6.75241 6.34947 6.72904 6.32726C6.70568 6.32726 6.68232 6.32726 6.65895 6.32726C6.33185 6.32726 6.00475 6.32726 5.67764 6.32726C5.63091 6.30504 5.60755 6.30504 5.56082 6.30504ZM6.14493 5.37207C6.51876 5.39429 6.93933 5.0833 6.93933 4.63903C6.93933 4.21697 6.61222 3.90598 6.14493 3.88377C5.70101 3.88377 5.37391 4.23918 5.37391 4.61681C5.37391 5.03887 5.74774 5.39429 6.14493 5.37207Z" fill="white"/>
<path d="M9.71973 13.1913C9.71973 13.1691 9.71973 13.1691 9.71973 13.1468C9.71973 13.1246 9.71973 13.1024 9.71973 13.0802C9.71973 11.2143 9.71973 9.32612 9.71973 7.46018C9.71973 7.41576 9.71973 7.37133 9.74309 7.3269C9.76646 7.3269 9.78982 7.3269 9.81318 7.30469C9.83655 7.30469 9.83655 7.30469 9.85991 7.30469C10.5375 7.30469 11.1917 7.30469 11.8693 7.30469C11.9627 7.30469 12.0562 7.30469 12.1496 7.3269C12.3599 7.34911 12.5702 7.39354 12.7805 7.43797C13.1309 7.52682 13.4814 7.6601 13.7851 7.86003C14.2291 8.1488 14.5562 8.52643 14.7665 9.01513C14.8833 9.25948 14.9534 9.52604 14.9767 9.7926C15.0235 10.0147 15.0235 10.2591 15.0001 10.5034C14.9767 10.7256 14.93 10.9255 14.8833 11.1476C14.7898 11.4586 14.6496 11.7474 14.4393 12.014C14.2992 12.2139 14.1356 12.3916 13.9253 12.5471C13.5749 12.8136 13.1777 13.0136 12.7337 13.1024C12.5235 13.1468 12.3365 13.1913 12.1263 13.2135C11.9861 13.2357 11.8693 13.2357 11.7291 13.2357C11.1216 13.2357 10.4908 13.2357 9.88328 13.2357C9.81318 13.2135 9.76646 13.2135 9.71973 13.1913Z" fill="white"/>
</g>
<defs>
<clipPath id="clip0_282_472">
<rect width="20" height="19.0148" fill="white" transform="translate(0 0.418457)"/>
</clipPath>
</defs>
</svg>
