<svg xmlns="http://www.w3.org/2000/svg" viewBox="0 0 183.74 180.45"><defs><style>.cls-1{fill:#fff;}</style></defs><g id="Layer_2" data-name="Layer 2"><g id="Layer_1-2" data-name="Layer 1"><path className="cls-1" d="M183.26,30.9c.12,1.28.4,2.86.4,4.44,0,29.58,0,59.17.08,88.76,0,4.33-1.54,7.18-5.27,9.31-18.18,10.37-36.29,20.87-54.42,31.32q-11.22,6.48-22.45,12.93c-1.38.79-2.84,1.44-5,2.52a25.66,25.66,0,0,1-1-4.77c-.07-12.13,0-24.26-.06-36.4,0-3.63,1.87-5.83,4.81-7.52q12.12-6.93,24.18-13.94c4.31-2.49,8.54-5.16,13-7.44,4.06-2.08,5.57-5.09,5.5-9.63-.2-13.46.06-26.93-.13-40.39-.08-5.73,1.74-9.6,7.11-12.4,9.11-4.77,17.83-10.31,26.78-15.41C178.52,31.28,180.21,29.44,183.26,30.9Z"/><path className="cls-1" d="M87.82,123.87c-3.67.54-5.61-1.26-7.71-2.45-11.54-6.57-23-13.21-34.55-19.8-1.1-.63-2.3-1.07-3.32-1.54-2.05,1.67-1.44,3.63-1.44,5.35,0,13.45,0,26.9,0,40.35,0,2.11.33,4.36-2.09,6.25-1.31-.59-2.83-1.15-4.22-1.94-9.8-5.59-19.55-11.28-29.38-16.82-3.56-2-5.08-4.76-5.07-8.9C.1,94.65.05,64.92.05,35.2v-.5c.13-4.92,1.23-5.56,5.71-3.09s8.65,4.94,13,7.43c21,12.12,41.91,24.32,63,36.3,4.52,2.57,6.74,5.7,6.56,11.11-.34,10.62-.08,21.26-.11,31.88C88.13,120.1,87.94,121.87,87.82,123.87Z"/><path className="cls-1" d="M5.79,21.49A28.09,28.09,0,0,1,9.1,18.86C18.86,13.19,28.71,7.68,38.43,1.93c4-2.37,7.51-2.28,11.6.1,25.09,14.63,50.3,29.05,75.46,43.57,1.55.9,3,2,4.19,2.78.6,3-1.44,3.62-2.92,4.49-7.3,4.3-14.63,8.52-22,12.76-2.73,1.58-5.54,3-8.19,4.72a8.11,8.11,0,0,1-9.3.13c-14.62-8.54-29.31-17-44-25.4-10.5-6-21-12-31.48-18.16C9.67,25.64,6.87,24.86,5.79,21.49Z"/><path className="cls-1" d="M100.45,22a43.5,43.5,0,0,1,3.86-3c10-5.82,20.16-11.52,30.17-17.4,3.16-1.85,6.2-2.24,9.39-.41q15.75,9,31.47,18.14a23.15,23.15,0,0,1,3,2.65,27.57,27.57,0,0,1-3.79,3.3c-10,5.88-20.11,11.63-30.13,17.49a8.64,8.64,0,0,1-9.39.1c-10.19-5.91-20.42-11.73-30.6-17.65A36.19,36.19,0,0,1,100.45,22Z"/><path className="cls-1" d="M87.31,180.45c-5-2.76-9-4.83-12.81-7-6.9-4-13.67-8.16-20.63-12-4.21-2.31-6.3-5.28-6.17-10.31.28-10.94.06-21.9.11-32.84,0-1.73.35-3.45.62-6A50.65,50.65,0,0,1,54,114.55c9.65,5.5,19.21,11.16,28.88,16.61,3.71,2.09,5.45,4.85,5.37,9.23-.2,11.28,0,22.56-.1,33.84A57.29,57.29,0,0,1,87.31,180.45Z"/><path className="cls-1" d="M135.46,57.26c.23,2.69.47,4.29.48,5.89,0,11.11-.11,22.23.07,33.34.07,4.32-1.51,7.17-5.26,9.28-9.83,5.53-19.52,11.28-29.31,16.87a35.3,35.3,0,0,1-4.83,1.86,17.32,17.32,0,0,1-1-3.67c-.06-12.27,0-24.55-.07-36.82,0-3.87,2.15-6.1,5.17-7.84l20.69-11.93c2.87-1.65,5.7-3.39,8.63-4.94A50.06,50.06,0,0,1,135.46,57.26Z"/></g></g></svg>