<svg xmlns="http://www.w3.org/2000/svg" viewBox="0 0 562.98 865.78"><defs><style>.cls-1{fill:#fff;}</style></defs><g id="Layer_2" data-name="Layer 2"><g id="Layer_1-2" data-name="Layer 1"><path className="cls-1" d="M206.57,327.83c-7.24,0-13.9-.26-20.53.05-13.23.64-25.32-8.62-28.69-22.36-2.12-8.68.13-16.83,6-23.78,6.29-7.47,14.41-10.92,24.12-10.92q93.73,0,187.48,0c8.15,0,15.58,2.14,21.59,7.56a27.26,27.26,0,0,1,9.19,23.26c-.6,7.55-3.5,14.23-9.46,19.13-5.06,4.17-10.64,7.27-17.59,7.11-7.32-.18-14.64,0-21.76,0-1.76,1.78-1.12,3.71-1.13,5.46q-.06,34.25,0,68.49c0,23.33.05,46.66-.06,70a17.05,17.05,0,0,0,2.87,9.78c11.49,17.88,22.72,35.92,34.09,53.87q23.48,37.07,47,74.07c9.78,15.44,19.48,30.94,29.25,46.39,7.29,11.51,14.66,23,22,34.46q13.5,21.24,27,42.51c9.62,15.14,19.41,30.18,28.87,45.42,4.27,6.9,8.75,13.68,12.07,21.18a51,51,0,0,1,4.16,19.8c.25,9.41-2.85,17.49-7.87,25.21-5.63,8.68-13.85,13.82-23.23,17.06a83.5,83.5,0,0,1-27.37,4.27q-223.47-.06-446.94,0c-10.73,0-21.18-1.64-31-5.94-13-5.7-21.95-15.26-25.32-29.36-2.58-10.74-.81-21.18,3.46-31.1A149.54,149.54,0,0,1,15,779.52c13.1-21,26.51-41.83,39.77-62.75Q73.91,686.68,93,656.56c7.38-11.62,14.84-23.2,22.23-34.82,5.15-8.12,10.22-16.3,15.36-24.42q20.11-31.77,40.27-63.5c11.16-17.52,22.42-35,33.6-52.46a15.06,15.06,0,0,0,2.47-8.46q-.12-70-.07-140C206.81,331.45,206.68,330,206.57,327.83Zm197.52,309c-.93-1.63-1.69-3.21-2.67-4.64-6.56-9.6-13.2-19.13-19.74-28.74-10.1-14.83-20.11-29.72-30.2-44.56q-21.28-31.32-42.65-62.58a17.3,17.3,0,0,1-3.1-10.26q.15-72,.07-144c0-3.34.05-6.67,0-10-.09-3.8-.5-4.23-4.43-4.25q-20-.06-40,0c-4.13,0-4.41.39-4.5,4.67,0,1.33,0,2.66,0,4V420c0,22.33,0,44.65-.06,67a14.56,14.56,0,0,1-1.3,6.2A76.35,76.35,0,0,1,250,502c-6,8.77-12.12,17.45-18.07,26.25-7.91,11.7-15.63,23.51-23.55,35.2-7.73,11.41-15.62,22.71-23.41,34.08-2.44,3.56-4.76,7.19-7.2,10.75-6,8.77-12.07,17.5-18.05,26.29a8.14,8.14,0,0,0-.67,2.59C165.61,638.18,399.94,637.93,404.09,636.83Z"/><path className="cls-1" d="M112.78,160.14c-1-22.77,19.92-46.33,46.42-45.72,25.18.57,45.62,20.58,45.27,46.36-.33,23.73-18.89,44.92-46.27,45.08C133.2,206,112.25,184.57,112.78,160.14Z"/><path className="cls-1" d="M386.2,114.65c24.88-1.21,45.95,21.08,45.78,45.78-.17,24.25-20.18,45-45.37,45.47-24.77.44-46.29-21.06-46.22-46.16C340.45,137.1,361.08,112.91,386.2,114.65Z"/><path className="cls-1" d="M317.86,34.89c.53,17.66-13.06,34.35-34.34,34.47-17.82.09-34.42-14.57-34-35.94.37-19,17.77-33.61,34.19-33.42C301.27.2,318.7,14.73,317.86,34.89Z"/></g></g></svg>