<svg width="20" height="20" viewBox="0 0 20 20" fill="none" xmlns="http://www.w3.org/2000/svg">
<path d="M19.196 6.4165L16.8366 8.65223C16.3679 13.8442 11.7585 17.8774 6.2507 17.8774C5.11788 17.8774 4.18038 17.7065 3.46945 17.3723C2.89913 17.0975 2.66476 16.8078 2.60226 16.7186C2.55055 16.644 2.51723 16.5592 2.50478 16.4706C2.49233 16.3819 2.50107 16.2918 2.53036 16.2068C2.55964 16.1219 2.60872 16.0443 2.67392 15.9799C2.73912 15.9155 2.81878 15.8658 2.90695 15.8348C2.92257 15.8273 4.76632 15.1588 5.96163 13.8739C5.22034 13.372 4.56878 12.7601 4.03195 12.0615C2.96163 10.68 1.82882 8.28084 2.50851 4.70072C2.52988 4.59428 2.58108 4.49531 2.65671 4.41425C2.73234 4.3332 2.82959 4.27306 2.9382 4.2402C3.04714 4.20629 3.16381 4.20151 3.27542 4.2264C3.38703 4.25129 3.48929 4.30489 3.57101 4.38133C3.59445 4.41104 6.19601 6.84731 9.3757 7.63464V7.18155C9.37876 6.71042 9.47941 6.24449 9.67188 5.81034C9.86436 5.37619 10.1449 4.98234 10.4975 4.65127C10.85 4.32021 11.2677 4.05841 11.7267 3.88082C12.1857 3.70324 12.677 3.61335 13.1726 3.61628C13.823 3.6251 14.4598 3.79394 15.0212 4.10634C15.5825 4.41875 16.0492 4.86407 16.3757 5.39892H18.7507C18.8741 5.39855 18.9948 5.43292 19.0977 5.49768C19.2006 5.56245 19.281 5.65472 19.3288 5.76287C19.3738 5.87263 19.3853 5.99226 19.3618 6.10794C19.3383 6.22361 19.2808 6.33059 19.196 6.4165Z" fill="white"/>
</svg>
